<?xml version="1.0" encoding="UTF-8"?>
<!-- Generator: visioncortex VTracer 0.6.3 -->
<svg version="1.1" xmlns="http://www.w3.org/2000/svg" width="1280" height="1280">
<path d="M0 0 C34.94 -0.02 69.89 -0.03 104.83 -0.05 C105.51 -0.05 106.2 -0.05 106.9 -0.05 C180.15 -0.08 253.4 -0.11 326.66 -0.13 C328.28 -0.13 329.91 -0.13 331.54 -0.13 C365.68 -0.14 399.83 -0.15 433.97 -0.15 C451.12 -0.16 468.27 -0.16 485.43 -0.16 C488.01 -0.16 490.6 -0.17 493.19 -0.17 C533.04 -0.18 572.89 -0.19 612.74 -0.21 C613.59 -0.21 614.45 -0.21 615.33 -0.21 C629.15 -0.21 642.97 -0.22 656.79 -0.23 C696.58 -0.25 736.38 -0.27 776.17 -0.27 C777.4 -0.27 777.4 -0.27 778.65 -0.27 C796.6 -0.28 814.56 -0.28 832.51 -0.28 C839.74 -0.28 846.96 -0.28 854.19 -0.28 C854.98 -0.28 855.77 -0.28 856.58 -0.28 C882.07 -0.29 907.57 -0.3 933.06 -0.32 C958.73 -0.34 984.4 -0.35 1010.07 -0.34 C1013.62 -0.34 1017.16 -0.34 1020.7 -0.34 C1021.4 -0.34 1022.09 -0.34 1022.81 -0.34 C1033.83 -0.34 1044.85 -0.35 1055.87 -0.36 C1066.69 -0.37 1077.52 -0.37 1088.34 -0.37 C1094.14 -0.36 1099.93 -0.36 1105.73 -0.37 C1110.99 -0.39 1116.26 -0.39 1121.52 -0.37 C1123.42 -0.37 1125.32 -0.37 1127.22 -0.38 C1129.79 -0.39 1132.36 -0.38 1134.93 -0.37 C1135.66 -0.38 1136.4 -0.39 1137.16 -0.4 C1143.23 -0.33 1147.08 1.41 1151.7 5.24 C1157.27 11.93 1160.68 24.26 1160 33 C1159.34 33.99 1158.68 34.98 1158 36 C1157.65 38.5 1157.65 38.5 1157.62 41.29 C1157.59 42.31 1157.55 43.34 1157.52 44.39 C1157.48 45.99 1157.48 45.99 1157.44 47.62 C1157.38 49.74 1157.31 51.86 1157.25 53.98 C1157.22 54.92 1157.2 55.86 1157.17 56.82 C1157 59 1157 59 1156 60 C1155.87 61.67 1155.8 63.35 1155.75 65.02 C1155.72 66.04 1155.69 67.07 1155.65 68.12 C1155.59 70.28 1155.54 72.45 1155.48 74.61 C1155.45 75.63 1155.41 76.66 1155.38 77.71 C1155.35 78.65 1155.33 79.59 1155.3 80.56 C1155 83 1155 83 1153 86 C1152.65 88.5 1152.65 88.5 1152.62 91.29 C1152.59 92.31 1152.55 93.34 1152.52 94.39 C1152.48 95.99 1152.48 95.99 1152.44 97.62 C1152.38 99.74 1152.31 101.86 1152.25 103.98 C1152.22 104.92 1152.2 105.86 1152.17 106.82 C1152 109 1152 109 1151 110 C1150.87 111.59 1150.8 113.18 1150.75 114.77 C1150.72 115.74 1150.69 116.71 1150.65 117.71 C1150.59 119.77 1150.54 121.82 1150.48 123.88 C1150.45 124.85 1150.41 125.83 1150.38 126.83 C1150.35 127.73 1150.33 128.62 1150.3 129.54 C1150 132 1150 132 1149 133.99 C1147.73 136.54 1147.7 138.54 1147.62 141.39 C1147.59 142.41 1147.55 143.43 1147.52 144.48 C1147.48 146.07 1147.48 146.07 1147.44 147.69 C1147.38 149.8 1147.31 151.9 1147.25 154.01 C1147.21 155.41 1147.21 155.41 1147.17 156.84 C1147 159 1147 159 1146 160 C1145.87 161.5 1145.8 163.01 1145.75 164.52 C1145.72 165.44 1145.69 166.36 1145.65 167.31 C1145.59 169.25 1145.54 171.2 1145.48 173.14 C1145.43 174.53 1145.43 174.53 1145.38 175.95 C1145.35 176.8 1145.33 177.65 1145.3 178.52 C1145 181 1145 181 1144 183.47 C1142.89 186.29 1142.7 188.47 1142.62 191.48 C1142.59 192.5 1142.55 193.52 1142.52 194.57 C1142.48 196.14 1142.48 196.14 1142.44 197.75 C1142.38 199.85 1142.31 201.95 1142.25 204.05 C1142.22 204.97 1142.2 205.9 1142.17 206.85 C1142 209 1142 209 1141 210 C1140.87 211.67 1140.8 213.35 1140.75 215.02 C1140.72 216.04 1140.69 217.07 1140.65 218.12 C1140.59 220.28 1140.54 222.45 1140.48 224.61 C1140.43 226.14 1140.43 226.14 1140.38 227.71 C1140.35 228.65 1140.33 229.59 1140.3 230.56 C1140 233 1140 233 1138 236 C1137.65 238.5 1137.65 238.5 1137.62 241.29 C1137.57 242.82 1137.57 242.82 1137.52 244.39 C1137.48 245.99 1137.48 245.99 1137.44 247.62 C1137.38 249.74 1137.31 251.86 1137.25 253.98 C1137.22 254.92 1137.2 255.86 1137.17 256.82 C1137 259 1137 259 1136 260 C1135.87 261.5 1135.8 263.01 1135.75 264.52 C1135.72 265.44 1135.69 266.36 1135.65 267.31 C1135.59 269.25 1135.54 271.2 1135.48 273.14 C1135.45 274.07 1135.41 275 1135.38 275.95 C1135.35 276.8 1135.33 277.65 1135.3 278.52 C1135 281 1135 281 1134 283.47 C1132.89 286.29 1132.7 288.47 1132.62 291.48 C1132.57 293.01 1132.57 293.01 1132.52 294.57 C1132.48 296.14 1132.48 296.14 1132.44 297.75 C1132.38 299.85 1132.31 301.95 1132.25 304.05 C1132.22 304.97 1132.2 305.9 1132.17 306.85 C1132 309 1132 309 1131 310 C1130.87 311.5 1130.8 313.01 1130.75 314.52 C1130.72 315.44 1130.69 316.36 1130.65 317.31 C1130.59 319.25 1130.54 321.2 1130.48 323.14 C1130.45 324.07 1130.41 325 1130.38 325.95 C1130.35 326.8 1130.33 327.65 1130.3 328.52 C1130 331 1130 331 1129 333.47 C1127.89 336.29 1127.7 338.47 1127.62 341.48 C1127.57 343.01 1127.57 343.01 1127.52 344.57 C1127.48 346.14 1127.48 346.14 1127.44 347.75 C1127.38 349.85 1127.31 351.95 1127.25 354.05 C1127.22 354.97 1127.2 355.9 1127.17 356.85 C1127 359 1127 359 1126 360 C1125.87 361.55 1125.8 363.11 1125.75 364.66 C1125.72 365.62 1125.69 366.58 1125.65 367.57 C1125.59 369.58 1125.54 371.6 1125.48 373.61 C1125.29 379.12 1124.53 383.69 1123 389 C1122.65 392.6 1122.54 396.2 1122.44 399.81 C1122.38 401.69 1122.31 403.58 1122.25 405.46 C1122.22 406.28 1122.2 407.11 1122.17 407.96 C1122 410 1122 410 1121 412 C1120.87 413.44 1120.8 414.88 1120.75 416.32 C1120.72 417.19 1120.69 418.05 1120.65 418.94 C1120.59 420.75 1120.54 422.56 1120.48 424.37 C1120.33 428.29 1120.09 431.68 1119 435.47 C1117.65 440.25 1117.58 444.87 1117.44 449.81 C1117.38 451.69 1117.31 453.58 1117.25 455.46 C1117.22 456.28 1117.2 457.11 1117.17 457.96 C1117 460 1117 460 1116 462 C1115.87 463.44 1115.8 464.88 1115.75 466.32 C1115.72 467.19 1115.69 468.05 1115.65 468.94 C1115.59 470.75 1115.54 472.56 1115.48 474.37 C1115.28 479.6 1114.44 483.95 1113 489 C1112.65 492.41 1112.54 495.82 1112.44 499.25 C1112.38 501.03 1112.31 502.8 1112.25 504.58 C1112.21 505.74 1112.21 505.74 1112.17 506.93 C1112 509 1112 509 1111 512 C1110.88 513.47 1110.8 514.95 1110.75 516.42 C1110.72 517.28 1110.69 518.14 1110.65 519.03 C1110.59 520.83 1110.54 522.62 1110.48 524.42 C1110.33 528.33 1110.09 531.69 1109 535.46 C1107.65 540.25 1107.58 544.87 1107.44 549.81 C1107.38 551.69 1107.31 553.58 1107.25 555.46 C1107.22 556.28 1107.2 557.11 1107.17 557.96 C1107 560 1107 560 1106 562 C1105.79 563.87 1105.63 565.75 1105.5 567.63 C1105.42 568.75 1105.34 569.86 1105.25 571.01 C1105.08 573.38 1104.92 575.75 1104.75 578.12 C1104.63 579.8 1104.63 579.8 1104.5 581.5 C1104.43 582.53 1104.36 583.56 1104.28 584.62 C1104 587 1104 587 1103 588 C1102.85 589.61 1102.77 591.22 1102.72 592.84 C1102.66 594.31 1102.66 594.31 1102.61 595.81 C1102.57 596.84 1102.54 597.87 1102.5 598.94 C1102.43 600.97 1102.36 603 1102.28 605.03 C1102.24 606.38 1102.24 606.38 1102.19 607.77 C1102 610 1102 610 1101 612 C1100.79 613.87 1100.63 615.75 1100.5 617.63 C1100.42 618.75 1100.34 619.86 1100.25 621.01 C1100.08 623.38 1099.92 625.75 1099.75 628.12 C1099.63 629.8 1099.63 629.8 1099.5 631.5 C1099.43 632.53 1099.36 633.56 1099.28 634.62 C1099 637 1099 637 1098 638 C1097.85 639.61 1097.77 641.22 1097.72 642.84 C1097.66 644.31 1097.66 644.31 1097.61 645.81 C1097.57 646.84 1097.54 647.87 1097.5 648.94 C1097.43 650.97 1097.36 653 1097.28 655.03 C1097.24 656.38 1097.24 656.38 1097.19 657.77 C1097 660 1097 660 1096 662 C1095.79 663.87 1095.63 665.75 1095.5 667.63 C1095.42 668.75 1095.34 669.86 1095.25 671.01 C1095.08 673.38 1094.92 675.75 1094.75 678.12 C1094.63 679.8 1094.63 679.8 1094.5 681.5 C1094.43 682.53 1094.36 683.56 1094.28 684.62 C1094 687 1094 687 1093 688 C1092.85 689.61 1092.77 691.22 1092.72 692.84 C1092.66 694.31 1092.66 694.31 1092.61 695.81 C1092.57 696.84 1092.54 697.87 1092.5 698.94 C1092.43 700.97 1092.36 703 1092.28 705.03 C1092.24 706.38 1092.24 706.38 1092.19 707.77 C1092 710 1092 710 1091 712 C1090.79 713.87 1090.63 715.75 1090.5 717.63 C1090.42 718.75 1090.34 719.86 1090.25 721.01 C1090.08 723.38 1089.92 725.75 1089.75 728.12 C1089.63 729.8 1089.63 729.8 1089.5 731.5 C1089.43 732.53 1089.36 733.56 1089.28 734.62 C1089 737 1089 737 1088 738 C1087.85 739.61 1087.77 741.22 1087.72 742.84 C1087.66 744.31 1087.66 744.31 1087.61 745.81 C1087.57 746.84 1087.54 747.87 1087.5 748.94 C1087.43 750.97 1087.36 753 1087.28 755.03 C1087.24 756.38 1087.24 756.38 1087.19 757.77 C1087 760 1087 760 1086 762 C1085.79 763.87 1085.63 765.75 1085.5 767.63 C1085.42 768.75 1085.34 769.86 1085.25 771.01 C1085.08 773.38 1084.92 775.75 1084.75 778.12 C1084.63 779.8 1084.63 779.8 1084.5 781.5 C1084.43 782.53 1084.36 783.56 1084.28 784.62 C1084 787 1084 787 1083 788 C1082.85 789.61 1082.77 791.22 1082.72 792.84 C1082.66 794.31 1082.66 794.31 1082.61 795.81 C1082.57 796.84 1082.54 797.87 1082.5 798.94 C1082.43 800.97 1082.36 803 1082.28 805.03 C1082.24 806.38 1082.24 806.38 1082.19 807.77 C1082 810 1082 810 1081 812 C1080.79 813.87 1080.63 815.75 1080.5 817.63 C1080.42 818.75 1080.34 819.86 1080.25 821.01 C1080.08 823.38 1079.92 825.75 1079.75 828.12 C1079.63 829.8 1079.63 829.8 1079.5 831.5 C1079.43 832.53 1079.36 833.56 1079.28 834.62 C1079 837 1079 837 1078 838 C1077.85 839.61 1077.77 841.22 1077.72 842.84 C1077.66 844.31 1077.66 844.31 1077.61 845.81 C1077.57 846.84 1077.54 847.87 1077.5 848.94 C1077.43 850.97 1077.36 853 1077.28 855.03 C1077.24 856.38 1077.24 856.38 1077.19 857.77 C1077 860 1077 860 1076 862 C1075.79 863.87 1075.63 865.75 1075.5 867.63 C1075.42 868.75 1075.34 869.86 1075.25 871.01 C1075.08 873.38 1074.92 875.75 1074.75 878.12 C1074.63 879.8 1074.63 879.8 1074.5 881.5 C1074.43 882.53 1074.36 883.56 1074.28 884.62 C1074 887 1074 887 1073 888 C1072.85 889.61 1072.77 891.22 1072.72 892.84 C1072.66 894.31 1072.66 894.31 1072.61 895.81 C1072.57 896.84 1072.54 897.87 1072.5 898.94 C1072.43 900.97 1072.36 903 1072.28 905.03 C1072.24 906.38 1072.24 906.38 1072.19 907.77 C1072 910 1072 910 1071 912 C1070.79 913.87 1070.63 915.75 1070.5 917.63 C1070.42 918.75 1070.34 919.86 1070.25 921.01 C1070.08 923.38 1069.92 925.75 1069.75 928.12 C1069.63 929.8 1069.63 929.8 1069.5 931.5 C1069.43 932.53 1069.36 933.56 1069.28 934.62 C1069 937 1069 937 1068 938 C1067.85 939.61 1067.77 941.22 1067.72 942.84 C1067.66 944.31 1067.66 944.31 1067.61 945.81 C1067.57 946.84 1067.54 947.87 1067.5 948.94 C1067.43 950.97 1067.36 953 1067.28 955.03 C1067.24 956.38 1067.24 956.38 1067.19 957.77 C1067 960 1067 960 1066 962 C1065.79 963.87 1065.63 965.75 1065.5 967.63 C1065.42 968.75 1065.34 969.86 1065.25 971.01 C1065.08 973.38 1064.92 975.75 1064.75 978.12 C1064.63 979.8 1064.63 979.8 1064.5 981.5 C1064.43 982.53 1064.36 983.56 1064.28 984.62 C1064 987 1064 987 1063 988 C1062.85 989.61 1062.77 991.22 1062.72 992.84 C1062.66 994.31 1062.66 994.31 1062.61 995.81 C1062.57 996.84 1062.54 997.87 1062.5 998.94 C1062.43 1000.97 1062.36 1003 1062.28 1005.03 C1062.24 1006.38 1062.24 1006.38 1062.19 1007.77 C1062 1010 1062 1010 1061 1012 C1060.79 1013.87 1060.63 1015.75 1060.5 1017.63 C1060.42 1018.75 1060.34 1019.86 1060.25 1021.01 C1060.08 1023.38 1059.92 1025.75 1059.75 1028.12 C1059.67 1029.24 1059.59 1030.35 1059.5 1031.5 C1059.43 1032.53 1059.36 1033.56 1059.28 1034.62 C1059 1037 1059 1037 1058 1038 C1057.85 1039.61 1057.77 1041.22 1057.72 1042.84 C1057.66 1044.31 1057.66 1044.31 1057.61 1045.81 C1057.57 1046.84 1057.54 1047.87 1057.5 1048.94 C1057.43 1050.97 1057.36 1053 1057.28 1055.03 C1057.24 1056.38 1057.24 1056.38 1057.19 1057.77 C1057 1060 1057 1060 1056 1062 C1055.79 1063.87 1055.63 1065.75 1055.5 1067.63 C1055.42 1068.75 1055.34 1069.86 1055.25 1071.01 C1055.08 1073.38 1054.92 1075.75 1054.75 1078.12 C1054.67 1079.24 1054.59 1080.35 1054.5 1081.5 C1054.43 1082.53 1054.36 1083.56 1054.28 1084.62 C1054 1087 1054 1087 1053 1088 C1052.76 1090.35 1052.59 1092.71 1052.44 1095.06 C1052.31 1097 1052.31 1097 1052.18 1098.97 C1052.09 1100.47 1052.09 1100.47 1052 1102 C1051.34 1102 1050.68 1102 1050 1102 C1049.9 1102.52 1049.79 1103.03 1049.69 1103.56 C1048.27 1108.59 1047.11 1112.11 1042.94 1115.44 C1040 1117 1040 1117 1038 1117 C1037.67 1117.66 1037.34 1118.32 1037 1119 C1034.68 1119.71 1032.34 1120.37 1030 1121 C1028.32 1121.64 1026.66 1122.31 1025 1123 C1023.04 1123.75 1021.08 1124.48 1019.12 1125.2 C1017.69 1125.74 1016.27 1126.29 1014.85 1126.86 C1011.31 1128.26 1008.86 1129 1005 1129 C1005 1129.66 1005 1130.32 1005 1131 C1003.55 1131.37 1003.55 1131.37 1002.06 1131.75 C998.19 1132.83 994.7 1134.49 991.11 1136.29 C988.65 1137.12 987.42 1136.86 985 1136 C984.67 1136.99 984.34 1137.98 984 1139 C982.36 1139.54 980.71 1140.05 979.04 1140.46 C976.22 1141.21 973.58 1142.31 970.89 1143.41 C969 1144 969 1144 965 1144 C965 1144.66 965 1145.32 965 1146 C963.58 1146.37 963.58 1146.37 962.12 1146.75 C956.56 1148.34 951.06 1150.44 945.9 1153.07 C943.06 1154.46 940.04 1155.14 937 1156 C934.95 1156.78 932.92 1157.58 930.89 1158.41 C929 1159 929 1159 925 1159 C925 1159.66 925 1160.32 925 1161 C923.58 1161.37 923.58 1161.37 922.12 1161.75 C916.56 1163.34 911.06 1165.44 905.9 1168.07 C903.06 1169.46 900.04 1170.14 897 1171 C894.95 1171.78 892.92 1172.58 890.89 1173.41 C889 1174 889 1174 885 1174 C885 1174.66 885 1175.32 885 1176 C883.58 1176.37 883.58 1176.37 882.12 1176.75 C876.56 1178.34 871.06 1180.44 865.9 1183.07 C863.06 1184.46 860.04 1185.14 857 1186 C854.95 1186.78 852.92 1187.58 850.89 1188.41 C849 1189 849 1189 845 1189 C845 1189.66 845 1190.32 845 1191 C843.58 1191.37 843.58 1191.37 842.12 1191.75 C836.56 1193.34 831.06 1195.44 825.9 1198.07 C823.06 1199.46 820.04 1200.14 817 1201 C814.95 1201.78 812.92 1202.58 810.89 1203.41 C809 1204 809 1204 805 1204 C805 1204.66 805 1205.32 805 1206 C803.58 1206.37 803.58 1206.37 802.12 1206.75 C796.56 1208.34 791.06 1210.44 785.9 1213.07 C783.06 1214.46 780.04 1215.14 777 1216 C774.95 1216.78 772.92 1217.58 770.89 1218.41 C769 1219 769 1219 765 1219 C765 1219.66 765 1220.32 765 1221 C763.58 1221.37 763.58 1221.37 762.12 1221.75 C756.56 1223.34 751.06 1225.44 745.9 1228.07 C743.06 1229.46 740.04 1230.14 737 1231 C734.95 1231.78 732.92 1232.58 730.89 1233.41 C729 1234 729 1234 725 1234 C725 1234.66 725 1235.32 725 1236 C723.58 1236.37 723.58 1236.37 722.12 1236.75 C716.56 1238.34 711.06 1240.44 705.9 1243.07 C703.06 1244.46 700.04 1245.14 697 1246 C694.95 1246.78 692.92 1247.58 690.89 1248.41 C689 1249 689 1249 685 1249 C685 1249.66 685 1250.32 685 1251 C683.58 1251.37 683.58 1251.37 682.12 1251.75 C676.56 1253.34 671.06 1255.44 665.9 1258.07 C663.06 1259.46 660.04 1260.14 657 1261 C654.95 1261.78 652.92 1262.58 650.89 1263.41 C649 1264 649 1264 645 1264 C645 1264.66 645 1265.32 645 1266 C644.01 1266.27 643.02 1266.54 642 1266.81 C637.05 1268.23 632.28 1270.09 627.5 1272 C624.02 1273.39 620.51 1274.69 617 1276 C615.5 1276.56 614 1277.12 612.5 1277.69 C611.35 1278.12 610.19 1278.55 609 1279 C609 1279.33 609 1279.66 609 1280 C601.08 1280 593.16 1280 585 1280 C584.67 1279.01 584.34 1278.02 584 1277 C583.39 1276.95 582.77 1276.9 582.14 1276.85 C580.92 1276.74 580.92 1276.74 579.69 1276.62 C578.49 1276.52 578.49 1276.52 577.26 1276.41 C575 1276 575 1276 572 1274 C570.5 1273.47 568.97 1273 567.44 1272.56 C566.56 1272.31 565.67 1272.05 564.77 1271.79 C563.85 1271.53 562.94 1271.27 562 1271 C556.9 1269.51 551.93 1267.97 547 1266 C545.34 1265.49 543.67 1264.99 542 1264.5 C537.81 1263.26 533.83 1261.78 529.81 1260.06 C526.37 1258.76 522.87 1257.76 519.34 1256.72 C516.83 1255.95 514.44 1254.98 512 1254 C510.34 1253.49 508.67 1252.99 507 1252.5 C503.57 1251.49 500.32 1250.33 497 1249 C495.34 1248.49 493.67 1247.99 492 1247.5 C488.57 1246.49 485.32 1245.33 482 1244 C480.34 1243.49 478.67 1242.99 477 1242.5 C473.57 1241.49 470.32 1240.33 467 1239 C465.34 1238.49 463.67 1237.99 462 1237.5 C458.57 1236.49 455.32 1235.33 452 1234 C450.34 1233.49 448.67 1232.99 447 1232.5 C443.57 1231.49 440.32 1230.33 437 1229 C433.68 1227.95 430.34 1226.98 427 1226 C421.12 1224.28 415.44 1222.48 409.81 1220.06 C406.37 1218.76 402.87 1217.76 399.34 1216.72 C396.83 1215.95 394.44 1214.98 392 1214 C390.34 1213.49 388.67 1212.99 387 1212.5 C383.57 1211.49 380.32 1210.33 377 1209 C375.34 1208.49 373.67 1207.99 372 1207.5 C368.57 1206.49 365.32 1205.33 362 1204 C360.34 1203.49 358.67 1202.99 357 1202.5 C353.57 1201.49 350.32 1200.33 347 1199 C345.34 1198.49 343.67 1197.99 342 1197.5 C338.57 1196.49 335.32 1195.33 332 1194 C330.34 1193.49 328.67 1192.99 327 1192.5 C323.57 1191.49 320.32 1190.33 317 1189 C315.34 1188.49 313.67 1187.99 312 1187.5 C308.57 1186.49 305.32 1185.33 302 1184 C300.34 1183.49 298.67 1182.99 297 1182.5 C293.57 1181.49 290.32 1180.33 287 1179 C285.34 1178.49 283.67 1177.99 282 1177.5 C278.57 1176.49 275.32 1175.33 272 1174 C270.34 1173.49 268.67 1172.99 267 1172.5 C263.57 1171.49 260.32 1170.33 257 1169 C255.34 1168.49 253.67 1167.99 252 1167.5 C248.57 1166.49 245.32 1165.33 242 1164 C240.34 1163.49 238.67 1162.99 237 1162.5 C233.57 1161.49 230.32 1160.33 227 1159 C225.34 1158.49 223.67 1157.99 222 1157.5 C218.57 1156.49 215.32 1155.33 212 1154 C210.34 1153.49 208.67 1152.99 207 1152.5 C203.57 1151.49 200.32 1150.33 197 1149 C195.34 1148.49 193.67 1147.99 192 1147.5 C188.57 1146.49 185.32 1145.33 182 1144 C180.34 1143.49 178.67 1142.99 177 1142.5 C173.57 1141.49 170.32 1140.33 167 1139 C165.34 1138.49 163.67 1137.99 162 1137.5 C158.57 1136.49 155.32 1135.33 152 1134 C150.34 1133.49 148.67 1132.99 147 1132.5 C143.57 1131.49 140.32 1130.33 137 1129 C133.68 1127.95 130.34 1126.98 127 1126 C121.64 1124.41 116.29 1122.81 111 1121 C111 1120.34 111 1119.68 111 1119 C110.37 1118.8 109.75 1118.59 109.1 1118.38 C108.28 1118.11 107.47 1117.84 106.62 1117.56 C105.81 1117.3 105 1117.03 104.16 1116.75 C102 1116 102 1116 100 1115 C100 1114.34 100 1113.68 100 1113 C99.34 1113 98.68 1113 98 1113 C90.81 1105.63 89.57 1098.04 89.38 1088.06 C89.32 1086.18 89.27 1084.29 89.21 1082.41 C89.19 1081.59 89.18 1080.76 89.16 1079.91 C89.21 1077.99 89.21 1077.99 88 1077 C87.78 1075.28 87.63 1073.56 87.5 1071.83 C87.42 1070.77 87.33 1069.71 87.25 1068.62 C87.17 1067.51 87.08 1066.4 87 1065.25 C86.84 1063.07 86.67 1060.89 86.5 1058.7 C86.39 1057.24 86.39 1057.24 86.28 1055.75 C86.05 1053.02 86.05 1053.02 85.49 1050.45 C85 1047.99 84.81 1045.68 84.72 1043.17 C84.68 1042.29 84.64 1041.41 84.61 1040.5 C84.53 1038.65 84.46 1036.8 84.39 1034.95 C84.36 1034.08 84.32 1033.2 84.28 1032.3 C84.25 1031.5 84.22 1030.7 84.19 1029.87 C84.2 1027.99 84.2 1027.99 83 1027 C82.78 1025.28 82.63 1023.56 82.5 1021.83 C82.42 1020.77 82.33 1019.71 82.25 1018.62 C82.17 1017.51 82.08 1016.4 82 1015.25 C81.84 1013.07 81.67 1010.89 81.5 1008.7 C81.39 1007.24 81.39 1007.24 81.28 1005.75 C81.05 1003.02 81.05 1003.02 80.49 1000.45 C80 997.99 79.81 995.68 79.72 993.17 C79.66 991.85 79.66 991.85 79.61 990.5 C79.53 988.65 79.46 986.8 79.39 984.95 C79.36 984.08 79.32 983.2 79.28 982.3 C79.25 981.5 79.22 980.7 79.19 979.87 C79.2 977.99 79.2 977.99 78 977 C77.78 975.28 77.63 973.56 77.5 971.83 C77.42 970.77 77.33 969.71 77.25 968.62 C77.17 967.51 77.08 966.4 77 965.25 C76.84 963.07 76.67 960.89 76.5 958.7 C76.39 957.24 76.39 957.24 76.28 955.75 C76.05 953.02 76.05 953.02 75.49 950.45 C75 947.99 74.81 945.68 74.72 943.17 C74.66 941.85 74.66 941.85 74.61 940.5 C74.53 938.65 74.46 936.8 74.39 934.95 C74.36 934.08 74.32 933.2 74.28 932.3 C74.25 931.5 74.22 930.7 74.19 929.87 C74.2 927.99 74.2 927.99 73 927 C72.78 925.28 72.63 923.56 72.5 921.83 C72.42 920.77 72.33 919.71 72.25 918.62 C72.17 917.51 72.08 916.4 72 915.25 C71.84 913.07 71.67 910.89 71.5 908.7 C71.39 907.24 71.39 907.24 71.28 905.75 C71.05 903.02 71.05 903.02 70.49 900.45 C70 897.99 69.81 895.68 69.72 893.17 C69.66 891.85 69.66 891.85 69.61 890.5 C69.53 888.65 69.46 886.8 69.39 884.95 C69.36 884.08 69.32 883.2 69.28 882.3 C69.25 881.5 69.22 880.7 69.19 879.87 C69.2 877.99 69.2 877.99 68 877 C67.78 875.28 67.63 873.56 67.5 871.83 C67.42 870.77 67.33 869.71 67.25 868.62 C67.17 867.51 67.08 866.4 67 865.25 C66.84 863.07 66.67 860.89 66.5 858.7 C66.39 857.24 66.39 857.24 66.28 855.75 C66.05 853.02 66.05 853.02 65.49 850.45 C65 847.99 64.81 845.68 64.72 843.17 C64.66 841.85 64.66 841.85 64.61 840.5 C64.53 838.65 64.46 836.8 64.39 834.95 C64.36 834.08 64.32 833.2 64.28 832.3 C64.25 831.5 64.22 830.7 64.19 829.87 C64.2 827.99 64.2 827.99 63 827 C62.78 825.26 62.63 823.51 62.5 821.76 C62.42 820.69 62.33 819.63 62.25 818.53 C62.17 817.4 62.08 816.28 62 815.12 C61.84 812.92 61.67 810.71 61.5 808.51 C61.39 807.03 61.39 807.03 61.28 805.53 C61.08 802.88 61.08 802.88 60 800 C59.86 798.31 59.78 796.62 59.72 794.93 C59.66 793.46 59.66 793.46 59.61 791.96 C59.53 789.9 59.46 787.83 59.39 785.76 C59.34 784.3 59.34 784.3 59.28 782.8 C59.25 781.91 59.22 781.01 59.19 780.09 C59.23 778.01 59.23 778.01 58 777 C57.78 775.26 57.63 773.51 57.5 771.76 C57.42 770.69 57.33 769.63 57.25 768.53 C57.17 767.4 57.08 766.28 57 765.12 C56.84 762.92 56.67 760.71 56.5 758.51 C56.39 757.03 56.39 757.03 56.28 755.53 C56.08 752.88 56.08 752.88 55 750 C54.86 748.31 54.78 746.62 54.72 744.93 C54.66 743.46 54.66 743.46 54.61 741.96 C54.53 739.9 54.46 737.83 54.39 735.76 C54.34 734.3 54.34 734.3 54.28 732.8 C54.25 731.91 54.22 731.01 54.19 730.09 C54.23 728.01 54.23 728.01 53 727 C52.78 725.26 52.63 723.51 52.5 721.76 C52.42 720.69 52.33 719.63 52.25 718.53 C52.17 717.4 52.08 716.28 52 715.12 C51.84 712.92 51.67 710.71 51.5 708.51 C51.39 707.03 51.39 707.03 51.28 705.53 C51.08 702.88 51.08 702.88 50 700 C49.86 698.31 49.78 696.62 49.72 694.93 C49.66 693.46 49.66 693.46 49.61 691.96 C49.53 689.9 49.46 687.83 49.39 685.76 C49.34 684.3 49.34 684.3 49.28 682.8 C49.25 681.91 49.22 681.01 49.19 680.09 C49.23 678.01 49.23 678.01 48 677 C47.78 675.26 47.63 673.51 47.5 671.76 C47.42 670.69 47.34 669.63 47.25 668.53 C47.17 667.4 47.09 666.28 47 665.12 C46.84 662.92 46.67 660.71 46.5 658.51 C46.39 657.03 46.39 657.03 46.28 655.53 C46.08 652.88 46.08 652.88 45 650 C44.86 648.31 44.78 646.62 44.72 644.93 C44.66 643.46 44.66 643.46 44.61 641.96 C44.53 639.9 44.46 637.83 44.39 635.76 C44.34 634.3 44.34 634.3 44.28 632.8 C44.25 631.91 44.22 631.01 44.19 630.09 C44.23 628.01 44.23 628.01 43 627 C42.78 625.26 42.63 623.51 42.5 621.76 C42.42 620.69 42.34 619.63 42.25 618.53 C42.17 617.4 42.09 616.28 42 615.12 C41.84 612.92 41.67 610.71 41.5 608.51 C41.39 607.03 41.39 607.03 41.28 605.53 C41.08 602.88 41.08 602.88 40 600 C39.86 598.31 39.78 596.62 39.72 594.93 C39.66 593.46 39.66 593.46 39.61 591.96 C39.53 589.9 39.46 587.83 39.39 585.76 C39.34 584.3 39.34 584.3 39.28 582.8 C39.25 581.91 39.22 581.01 39.19 580.09 C39.23 578.01 39.23 578.01 38 577 C37.78 575.26 37.63 573.51 37.5 571.76 C37.42 570.69 37.34 569.63 37.25 568.53 C37.17 567.4 37.09 566.28 37 565.12 C36.84 562.92 36.67 560.71 36.5 558.51 C36.39 557.03 36.39 557.03 36.28 555.53 C36.08 552.88 36.08 552.88 35 550 C34.86 548.31 34.78 546.62 34.72 544.93 C34.66 543.46 34.66 543.46 34.61 541.96 C34.53 539.9 34.46 537.83 34.39 535.76 C34.34 534.3 34.34 534.3 34.28 532.8 C34.25 531.91 34.22 531.01 34.19 530.09 C34.23 528.01 34.23 528.01 33 527 C32.78 525.26 32.63 523.51 32.5 521.76 C32.42 520.69 32.34 519.63 32.25 518.53 C32.17 517.4 32.09 516.28 32 515.12 C31.84 512.92 31.67 510.71 31.5 508.51 C31.39 507.03 31.39 507.03 31.28 505.53 C31.08 502.88 31.08 502.88 30 500 C29.86 498.31 29.78 496.62 29.72 494.93 C29.66 493.46 29.66 493.46 29.61 491.96 C29.53 489.9 29.46 487.83 29.39 485.76 C29.34 484.3 29.34 484.3 29.28 482.8 C29.25 481.91 29.22 481.01 29.19 480.09 C29.23 478.01 29.23 478.01 28 477 C27.78 475.26 27.63 473.51 27.5 471.76 C27.42 470.69 27.34 469.63 27.25 468.53 C27.17 467.4 27.09 466.28 27 465.12 C26.84 462.92 26.67 460.71 26.5 458.51 C26.39 457.03 26.39 457.03 26.28 455.53 C26.08 452.88 26.08 452.88 25 450 C24.86 448.31 24.78 446.62 24.72 444.93 C24.66 443.46 24.66 443.46 24.61 441.96 C24.53 439.9 24.46 437.83 24.39 435.76 C24.34 434.3 24.34 434.3 24.28 432.8 C24.25 431.91 24.22 431.01 24.19 430.09 C24.23 428.01 24.23 428.01 23 427 C22.78 425.26 22.63 423.51 22.5 421.76 C22.42 420.69 22.34 419.63 22.25 418.53 C22.17 417.4 22.09 416.28 22 415.12 C21.84 412.92 21.67 410.71 21.5 408.51 C21.39 407.03 21.39 407.03 21.28 405.53 C21.08 402.88 21.08 402.88 20 400 C19.86 398.31 19.78 396.62 19.72 394.93 C19.66 393.46 19.66 393.46 19.61 391.96 C19.53 389.9 19.46 387.83 19.39 385.76 C19.34 384.3 19.34 384.3 19.28 382.8 C19.25 381.91 19.22 381.01 19.19 380.09 C19.23 378.01 19.23 378.01 18 377 C17.78 375.26 17.63 373.51 17.5 371.76 C17.42 370.69 17.34 369.63 17.25 368.53 C17.17 367.4 17.09 366.28 17 365.12 C16.84 362.92 16.67 360.71 16.5 358.51 C16.43 357.52 16.36 356.54 16.28 355.53 C16.08 352.88 16.08 352.88 15 350 C14.86 348.31 14.78 346.62 14.72 344.93 C14.68 343.95 14.64 342.97 14.61 341.96 C14.53 339.9 14.46 337.83 14.39 335.76 C14.36 334.79 14.32 333.81 14.28 332.8 C14.25 331.91 14.22 331.01 14.19 330.09 C14.23 328.01 14.23 328.01 13 327 C12.78 325.26 12.63 323.51 12.5 321.76 C12.38 320.16 12.38 320.16 12.25 318.53 C12.17 317.4 12.09 316.28 12 315.12 C11.84 312.92 11.67 310.71 11.5 308.51 C11.43 307.52 11.36 306.54 11.28 305.53 C11.08 302.88 11.08 302.88 10 300 C9.86 298.31 9.78 296.62 9.72 294.93 C9.68 293.95 9.64 292.97 9.61 291.96 C9.53 289.9 9.46 287.83 9.39 285.76 C9.36 284.79 9.32 283.81 9.28 282.8 C9.25 281.91 9.22 281.01 9.19 280.09 C9.23 278.01 9.23 278.01 8 277 C7.78 275.26 7.63 273.51 7.5 271.76 C7.38 270.16 7.38 270.16 7.25 268.53 C7.17 267.4 7.09 266.28 7 265.12 C6.84 262.92 6.67 260.71 6.5 258.51 C6.43 257.52 6.36 256.54 6.28 255.53 C6.08 252.88 6.08 252.88 5 250 C4.86 248.31 4.78 246.62 4.72 244.93 C4.68 243.95 4.64 242.97 4.61 241.96 C4.53 239.9 4.46 237.83 4.39 235.76 C4.36 234.79 4.32 233.81 4.28 232.8 C4.24 231.46 4.24 231.46 4.19 230.09 C4.23 228.01 4.23 228.01 3 227 C2.78 225.26 2.63 223.51 2.5 221.76 C2.42 220.69 2.34 219.63 2.25 218.53 C2.13 216.84 2.13 216.84 2 215.12 C1.84 212.92 1.67 210.71 1.5 208.51 C1.43 207.52 1.36 206.54 1.28 205.53 C1.08 202.88 1.08 202.88 0 200 C-0.14 198.31 -0.22 196.62 -0.28 194.93 C-0.32 193.95 -0.36 192.97 -0.39 191.96 C-0.47 189.9 -0.54 187.83 -0.61 185.76 C-0.64 184.79 -0.68 183.81 -0.72 182.8 C-0.76 181.46 -0.76 181.46 -0.81 180.09 C-0.77 178.01 -0.77 178.01 -2 177 C-2.22 175.26 -2.37 173.51 -2.5 171.76 C-2.58 170.69 -2.66 169.63 -2.75 168.53 C-2.87 166.84 -2.87 166.84 -3 165.12 C-3.16 162.92 -3.33 160.71 -3.5 158.51 C-3.57 157.52 -3.64 156.54 -3.72 155.53 C-3.92 152.88 -3.92 152.88 -5 150 C-5.14 148.31 -5.22 146.62 -5.28 144.93 C-5.32 143.95 -5.36 142.97 -5.39 141.96 C-5.47 139.9 -5.54 137.83 -5.61 135.76 C-5.64 134.79 -5.68 133.81 -5.72 132.8 C-5.76 131.46 -5.76 131.46 -5.81 130.09 C-5.77 128.01 -5.77 128.01 -7 127 C-7.22 125.26 -7.37 123.51 -7.5 121.76 C-7.62 120.16 -7.62 120.16 -7.75 118.53 C-7.83 117.4 -7.91 116.28 -8 115.12 C-8.16 112.92 -8.33 110.71 -8.5 108.51 C-8.57 107.52 -8.64 106.54 -8.72 105.53 C-8.92 102.88 -8.92 102.88 -10 100 C-10.14 98.31 -10.22 96.62 -10.28 94.93 C-10.32 93.95 -10.36 92.97 -10.39 91.96 C-10.47 89.9 -10.54 87.83 -10.61 85.76 C-10.66 84.3 -10.66 84.3 -10.72 82.8 C-10.75 81.91 -10.78 81.01 -10.81 80.09 C-10.77 78.01 -10.77 78.01 -12 77 C-12.22 75.26 -12.37 73.51 -12.5 71.76 C-12.58 70.69 -12.66 69.63 -12.75 68.53 C-12.83 67.4 -12.91 66.28 -13 65.12 C-13.16 62.92 -13.33 60.71 -13.5 58.51 C-13.57 57.52 -13.64 56.54 -13.72 55.53 C-13.92 52.88 -13.92 52.88 -15 50 C-15.08 47.34 -15.12 44.71 -15.1 42.05 C-15.1 41.28 -15.09 40.51 -15.09 39.71 C-15.09 37.24 -15.08 34.78 -15.06 32.31 C-15.06 30.64 -15.05 28.97 -15.05 27.29 C-15.04 23.2 -15.02 19.1 -15 15 C-14.34 14.67 -13.68 14.34 -13 14 C-12.66 12.95 -12.66 12.95 -12.31 11.88 C-10.46 7.81 -7.61 4.64 -4 2 C-2.68 2 -1.36 2 0 2 C0 1.34 0 0.68 0 0 Z " fill="#F9C109" transform="translate(67,0)"/>
<path d="M0 0 C34.94 -0.02 69.89 -0.03 104.83 -0.05 C105.51 -0.05 106.2 -0.05 106.9 -0.05 C180.15 -0.08 253.4 -0.11 326.66 -0.13 C328.28 -0.13 329.91 -0.13 331.54 -0.13 C365.68 -0.14 399.83 -0.15 433.97 -0.15 C451.12 -0.16 468.27 -0.16 485.43 -0.16 C488.01 -0.16 490.6 -0.17 493.19 -0.17 C533.04 -0.18 572.89 -0.19 612.74 -0.21 C613.59 -0.21 614.45 -0.21 615.33 -0.21 C629.15 -0.21 642.97 -0.22 656.79 -0.23 C696.58 -0.25 736.38 -0.27 776.17 -0.27 C777.4 -0.27 777.4 -0.27 778.65 -0.27 C796.6 -0.28 814.56 -0.28 832.51 -0.28 C839.74 -0.28 846.96 -0.28 854.19 -0.28 C854.98 -0.28 855.77 -0.28 856.58 -0.28 C882.07 -0.29 907.57 -0.3 933.06 -0.32 C958.73 -0.34 984.4 -0.35 1010.07 -0.34 C1013.62 -0.34 1017.16 -0.34 1020.7 -0.34 C1021.4 -0.34 1022.09 -0.34 1022.81 -0.34 C1033.83 -0.34 1044.85 -0.35 1055.87 -0.36 C1066.69 -0.37 1077.52 -0.37 1088.34 -0.37 C1094.14 -0.36 1099.93 -0.36 1105.73 -0.37 C1110.99 -0.39 1116.26 -0.39 1121.52 -0.37 C1123.42 -0.37 1125.32 -0.37 1127.22 -0.38 C1129.79 -0.39 1132.36 -0.38 1134.93 -0.37 C1135.66 -0.38 1136.4 -0.39 1137.16 -0.4 C1143.23 -0.33 1147.08 1.41 1151.7 5.24 C1157.27 11.93 1160.68 24.26 1160 33 C1159.34 33.99 1158.68 34.98 1158 36 C1157.65 38.5 1157.65 38.5 1157.62 41.29 C1157.59 42.31 1157.55 43.34 1157.52 44.39 C1157.48 45.99 1157.48 45.99 1157.44 47.62 C1157.38 49.74 1157.31 51.86 1157.25 53.98 C1157.22 54.92 1157.2 55.86 1157.17 56.82 C1157 59 1157 59 1156 60 C1155.87 61.67 1155.8 63.35 1155.75 65.02 C1155.72 66.04 1155.69 67.07 1155.65 68.12 C1155.59 70.28 1155.54 72.45 1155.48 74.61 C1155.45 75.63 1155.41 76.66 1155.38 77.71 C1155.35 78.65 1155.33 79.59 1155.3 80.56 C1155 83 1155 83 1153 86 C1152.65 88.5 1152.65 88.5 1152.62 91.29 C1152.59 92.31 1152.55 93.34 1152.52 94.39 C1152.48 95.99 1152.48 95.99 1152.44 97.62 C1152.38 99.74 1152.31 101.86 1152.25 103.98 C1152.22 104.92 1152.2 105.86 1152.17 106.82 C1152 109 1152 109 1151 110 C1150.87 111.59 1150.8 113.18 1150.75 114.77 C1150.72 115.74 1150.69 116.71 1150.65 117.71 C1150.59 119.77 1150.54 121.82 1150.48 123.88 C1150.45 124.85 1150.41 125.83 1150.38 126.83 C1150.35 127.73 1150.33 128.62 1150.3 129.54 C1150 132 1150 132 1149 133.99 C1147.73 136.54 1147.7 138.54 1147.62 141.39 C1147.59 142.41 1147.55 143.43 1147.52 144.48 C1147.48 146.07 1147.48 146.07 1147.44 147.69 C1147.38 149.8 1147.31 151.9 1147.25 154.01 C1147.21 155.41 1147.21 155.41 1147.17 156.84 C1147 159 1147 159 1146 160 C1145.87 161.5 1145.8 163.01 1145.75 164.52 C1145.72 165.44 1145.69 166.36 1145.65 167.31 C1145.59 169.25 1145.54 171.2 1145.48 173.14 C1145.43 174.53 1145.43 174.53 1145.38 175.95 C1145.35 176.8 1145.33 177.65 1145.3 178.52 C1145 181 1145 181 1144 183.47 C1142.89 186.29 1142.7 188.47 1142.62 191.48 C1142.59 192.5 1142.55 193.52 1142.52 194.57 C1142.48 196.14 1142.48 196.14 1142.44 197.75 C1142.38 199.85 1142.31 201.95 1142.25 204.05 C1142.22 204.97 1142.2 205.9 1142.17 206.85 C1142 209 1142 209 1141 210 C1140.87 211.67 1140.8 213.35 1140.75 215.02 C1140.72 216.04 1140.69 217.07 1140.65 218.12 C1140.59 220.28 1140.54 222.45 1140.48 224.61 C1140.43 226.14 1140.43 226.14 1140.38 227.71 C1140.35 228.65 1140.33 229.59 1140.3 230.56 C1140 233 1140 233 1138 236 C1137.65 238.5 1137.65 238.5 1137.62 241.29 C1137.57 242.82 1137.57 242.82 1137.52 244.39 C1137.48 245.99 1137.48 245.99 1137.44 247.62 C1137.38 249.74 1137.31 251.86 1137.25 253.98 C1137.22 254.92 1137.2 255.86 1137.17 256.82 C1137 259 1137 259 1136 260 C1135.87 261.5 1135.8 263.01 1135.75 264.52 C1135.72 265.44 1135.69 266.36 1135.65 267.31 C1135.59 269.25 1135.54 271.2 1135.48 273.14 C1135.45 274.07 1135.41 275 1135.38 275.95 C1135.35 276.8 1135.33 277.65 1135.3 278.52 C1135 281 1135 281 1134 283.47 C1132.89 286.29 1132.7 288.47 1132.62 291.48 C1132.57 293.01 1132.57 293.01 1132.52 294.57 C1132.48 296.14 1132.48 296.14 1132.44 297.75 C1132.38 299.85 1132.31 301.95 1132.25 304.05 C1132.22 304.97 1132.2 305.9 1132.17 306.85 C1132 309 1132 309 1131 310 C1130.87 311.5 1130.8 313.01 1130.75 314.52 C1130.72 315.44 1130.69 316.36 1130.65 317.31 C1130.59 319.25 1130.54 321.2 1130.48 323.14 C1130.45 324.07 1130.41 325 1130.38 325.95 C1130.35 326.8 1130.33 327.65 1130.3 328.52 C1130 331 1130 331 1129 333.47 C1127.89 336.29 1127.7 338.47 1127.62 341.48 C1127.57 343.01 1127.57 343.01 1127.52 344.57 C1127.48 346.14 1127.48 346.14 1127.44 347.75 C1127.38 349.85 1127.31 351.95 1127.25 354.05 C1127.22 354.97 1127.2 355.9 1127.17 356.85 C1127 359 1127 359 1126 360 C1125.87 361.55 1125.8 363.11 1125.75 364.66 C1125.72 365.62 1125.69 366.58 1125.65 367.57 C1125.59 369.58 1125.54 371.6 1125.48 373.61 C1125.29 379.12 1124.53 383.69 1123 389 C1122.65 392.6 1122.54 396.2 1122.44 399.81 C1122.38 401.69 1122.31 403.58 1122.25 405.46 C1122.22 406.28 1122.2 407.11 1122.17 407.96 C1122 410 1122 410 1121 412 C1120.87 413.44 1120.8 414.88 1120.75 416.32 C1120.72 417.19 1120.69 418.05 1120.65 418.94 C1120.59 420.75 1120.54 422.56 1120.48 424.37 C1120.33 428.29 1120.09 431.68 1119 435.47 C1117.65 440.25 1117.58 444.87 1117.44 449.81 C1117.38 451.69 1117.31 453.58 1117.25 455.46 C1117.22 456.28 1117.2 457.11 1117.17 457.96 C1117 460 1117 460 1116 462 C1115.87 463.44 1115.8 464.88 1115.75 466.32 C1115.72 467.19 1115.69 468.05 1115.65 468.94 C1115.59 470.75 1115.54 472.56 1115.48 474.37 C1115.28 479.6 1114.44 483.95 1113 489 C1112.65 492.41 1112.54 495.82 1112.44 499.25 C1112.38 501.03 1112.31 502.8 1112.25 504.58 C1112.21 505.74 1112.21 505.74 1112.17 506.93 C1112 509 1112 509 1111 512 C1110.88 513.47 1110.8 514.95 1110.75 516.42 C1110.72 517.28 1110.69 518.14 1110.65 519.03 C1110.59 520.83 1110.54 522.62 1110.48 524.42 C1110.33 528.33 1110.09 531.69 1109 535.46 C1107.65 540.25 1107.58 544.87 1107.44 549.81 C1107.38 551.69 1107.31 553.58 1107.25 555.46 C1107.22 556.28 1107.2 557.11 1107.17 557.96 C1107 560 1107 560 1106 562 C1105.79 563.87 1105.63 565.75 1105.5 567.63 C1105.42 568.75 1105.34 569.86 1105.25 571.01 C1105.08 573.38 1104.92 575.75 1104.75 578.12 C1104.63 579.8 1104.63 579.8 1104.5 581.5 C1104.43 582.53 1104.36 583.56 1104.28 584.62 C1104 587 1104 587 1103 588 C1102.85 589.61 1102.77 591.22 1102.72 592.84 C1102.66 594.31 1102.66 594.31 1102.61 595.81 C1102.57 596.84 1102.54 597.87 1102.5 598.94 C1102.43 600.97 1102.36 603 1102.28 605.03 C1102.24 606.38 1102.24 606.38 1102.19 607.77 C1102 610 1102 610 1101 612 C1100.79 613.87 1100.63 615.75 1100.5 617.63 C1100.42 618.75 1100.34 619.86 1100.25 621.01 C1100.08 623.38 1099.92 625.75 1099.75 628.12 C1099.63 629.8 1099.63 629.8 1099.5 631.5 C1099.43 632.53 1099.36 633.56 1099.28 634.62 C1099 637 1099 637 1098 638 C1097.85 639.61 1097.77 641.22 1097.72 642.84 C1097.66 644.31 1097.66 644.31 1097.61 645.81 C1097.57 646.84 1097.54 647.87 1097.5 648.94 C1097.43 650.97 1097.36 653 1097.28 655.03 C1097.24 656.38 1097.24 656.38 1097.19 657.77 C1097 660 1097 660 1096 662 C1095.79 663.87 1095.63 665.75 1095.5 667.63 C1095.42 668.75 1095.34 669.86 1095.25 671.01 C1095.08 673.38 1094.92 675.75 1094.75 678.12 C1094.63 679.8 1094.63 679.8 1094.5 681.5 C1094.43 682.53 1094.36 683.56 1094.28 684.62 C1094 687 1094 687 1093 688 C1092.85 689.61 1092.77 691.22 1092.72 692.84 C1092.66 694.31 1092.66 694.31 1092.61 695.81 C1092.57 696.84 1092.54 697.87 1092.5 698.94 C1092.43 700.97 1092.36 703 1092.28 705.03 C1092.24 706.38 1092.24 706.38 1092.19 707.77 C1092 710 1092 710 1091 712 C1090.79 713.87 1090.63 715.75 1090.5 717.63 C1090.42 718.75 1090.34 719.86 1090.25 721.01 C1090.08 723.38 1089.92 725.75 1089.75 728.12 C1089.63 729.8 1089.63 729.8 1089.5 731.5 C1089.43 732.53 1089.36 733.56 1089.28 734.62 C1089 737 1089 737 1088 738 C1087.85 739.61 1087.77 741.22 1087.72 742.84 C1087.66 744.31 1087.66 744.31 1087.61 745.81 C1087.57 746.84 1087.54 747.87 1087.5 748.94 C1087.43 750.97 1087.36 753 1087.28 755.03 C1087.24 756.38 1087.24 756.38 1087.19 757.77 C1087 760 1087 760 1086 762 C1085.79 763.87 1085.63 765.75 1085.5 767.63 C1085.42 768.75 1085.34 769.86 1085.25 771.01 C1085.08 773.38 1084.92 775.75 1084.75 778.12 C1084.63 779.8 1084.63 779.8 1084.5 781.5 C1084.43 782.53 1084.36 783.56 1084.28 784.62 C1084 787 1084 787 1083 788 C1082.85 789.61 1082.77 791.22 1082.72 792.84 C1082.66 794.31 1082.66 794.31 1082.61 795.81 C1082.57 796.84 1082.54 797.87 1082.5 798.94 C1082.43 800.97 1082.36 803 1082.28 805.03 C1082.24 806.38 1082.24 806.38 1082.19 807.77 C1082 810 1082 810 1081 812 C1080.79 813.87 1080.63 815.75 1080.5 817.63 C1080.42 818.75 1080.34 819.86 1080.25 821.01 C1080.08 823.38 1079.92 825.75 1079.75 828.12 C1079.63 829.8 1079.63 829.8 1079.5 831.5 C1079.43 832.53 1079.36 833.56 1079.28 834.62 C1079 837 1079 837 1078 838 C1077.85 839.61 1077.77 841.22 1077.72 842.84 C1077.66 844.31 1077.66 844.31 1077.61 845.81 C1077.57 846.84 1077.54 847.87 1077.5 848.94 C1077.43 850.97 1077.36 853 1077.28 855.03 C1077.24 856.38 1077.24 856.38 1077.19 857.77 C1077 860 1077 860 1076 862 C1075.79 863.87 1075.63 865.75 1075.5 867.63 C1075.42 868.75 1075.34 869.86 1075.25 871.01 C1075.08 873.38 1074.92 875.75 1074.75 878.12 C1074.63 879.8 1074.63 879.8 1074.5 881.5 C1074.43 882.53 1074.36 883.56 1074.28 884.62 C1074 887 1074 887 1073 888 C1072.85 889.61 1072.77 891.22 1072.72 892.84 C1072.66 894.31 1072.66 894.31 1072.61 895.81 C1072.57 896.84 1072.54 897.87 1072.5 898.94 C1072.43 900.97 1072.36 903 1072.28 905.03 C1072.24 906.38 1072.24 906.38 1072.19 907.77 C1072 910 1072 910 1071 912 C1070.79 913.87 1070.63 915.75 1070.5 917.63 C1070.42 918.75 1070.34 919.86 1070.25 921.01 C1070.08 923.38 1069.92 925.75 1069.75 928.12 C1069.63 929.8 1069.63 929.8 1069.5 931.5 C1069.43 932.53 1069.36 933.56 1069.28 934.62 C1069 937 1069 937 1068 938 C1067.85 939.61 1067.77 941.22 1067.72 942.84 C1067.66 944.31 1067.66 944.31 1067.61 945.81 C1067.57 946.84 1067.54 947.87 1067.5 948.94 C1067.43 950.97 1067.36 953 1067.28 955.03 C1067.24 956.38 1067.24 956.38 1067.19 957.77 C1067 960 1067 960 1066 962 C1065.79 963.87 1065.63 965.75 1065.5 967.63 C1065.42 968.75 1065.34 969.86 1065.25 971.01 C1065.08 973.38 1064.92 975.75 1064.75 978.12 C1064.63 979.8 1064.63 979.8 1064.5 981.5 C1064.43 982.53 1064.36 983.56 1064.28 984.62 C1064 987 1064 987 1063 988 C1062.85 989.61 1062.77 991.22 1062.72 992.84 C1062.66 994.31 1062.66 994.31 1062.61 995.81 C1062.57 996.84 1062.54 997.87 1062.5 998.94 C1062.43 1000.97 1062.36 1003 1062.28 1005.03 C1062.24 1006.38 1062.24 1006.38 1062.19 1007.77 C1062 1010 1062 1010 1061 1012 C1060.79 1013.87 1060.63 1015.75 1060.5 1017.63 C1060.42 1018.75 1060.34 1019.86 1060.25 1021.01 C1060.08 1023.38 1059.92 1025.75 1059.75 1028.12 C1059.67 1029.24 1059.59 1030.35 1059.5 1031.5 C1059.43 1032.53 1059.36 1033.56 1059.28 1034.62 C1059 1037 1059 1037 1058 1038 C1057.85 1039.61 1057.77 1041.22 1057.72 1042.84 C1057.66 1044.31 1057.66 1044.31 1057.61 1045.81 C1057.57 1046.84 1057.54 1047.87 1057.5 1048.94 C1057.43 1050.97 1057.36 1053 1057.28 1055.03 C1057.24 1056.38 1057.24 1056.38 1057.19 1057.77 C1057 1060 1057 1060 1056 1062 C1055.79 1063.87 1055.63 1065.75 1055.5 1067.63 C1055.42 1068.75 1055.34 1069.86 1055.25 1071.01 C1055.08 1073.38 1054.92 1075.75 1054.75 1078.12 C1054.67 1079.24 1054.59 1080.35 1054.5 1081.5 C1054.43 1082.53 1054.36 1083.56 1054.28 1084.62 C1054 1087 1054 1087 1053 1088 C1052.76 1090.35 1052.59 1092.71 1052.44 1095.06 C1052.31 1097 1052.31 1097 1052.18 1098.97 C1052.09 1100.47 1052.09 1100.47 1052 1102 C1051.34 1102 1050.68 1102 1050 1102 C1049.9 1102.52 1049.79 1103.03 1049.69 1103.56 C1048.27 1108.59 1047.11 1112.11 1042.94 1115.44 C1040 1117 1040 1117 1038 1117 C1037.67 1117.66 1037.34 1118.32 1037 1119 C1034.68 1119.71 1032.34 1120.37 1030 1121 C1028.32 1121.64 1026.66 1122.31 1025 1123 C1023.04 1123.75 1021.08 1124.48 1019.12 1125.2 C1017.69 1125.74 1016.27 1126.29 1014.85 1126.86 C1011.31 1128.26 1008.86 1129 1005 1129 C1005 1129.66 1005 1130.32 1005 1131 C1003.55 1131.37 1003.55 1131.37 1002.06 1131.75 C998.19 1132.83 994.7 1134.49 991.11 1136.29 C988.65 1137.12 987.42 1136.86 985 1136 C984.67 1136.99 984.34 1137.98 984 1139 C982.36 1139.54 980.71 1140.05 979.04 1140.46 C976.22 1141.21 973.58 1142.31 970.89 1143.41 C969 1144 969 1144 965 1144 C965 1144.66 965 1145.32 965 1146 C963.58 1146.37 963.58 1146.37 962.12 1146.75 C956.56 1148.34 951.06 1150.44 945.9 1153.07 C943.06 1154.46 940.04 1155.14 937 1156 C934.95 1156.78 932.92 1157.58 930.89 1158.41 C929 1159 929 1159 925 1159 C925 1159.66 925 1160.32 925 1161 C923.58 1161.37 923.58 1161.37 922.12 1161.75 C916.56 1163.34 911.06 1165.44 905.9 1168.07 C903.06 1169.46 900.04 1170.14 897 1171 C894.95 1171.78 892.92 1172.58 890.89 1173.41 C889 1174 889 1174 885 1174 C885 1174.66 885 1175.32 885 1176 C883.58 1176.37 883.58 1176.37 882.12 1176.75 C876.56 1178.34 871.06 1180.44 865.9 1183.07 C863.06 1184.46 860.04 1185.14 857 1186 C854.95 1186.78 852.92 1187.58 850.89 1188.41 C849 1189 849 1189 845 1189 C845 1189.66 845 1190.32 845 1191 C843.58 1191.37 843.58 1191.37 842.12 1191.75 C836.56 1193.34 831.06 1195.44 825.9 1198.07 C823.06 1199.46 820.04 1200.14 817 1201 C814.95 1201.78 812.92 1202.58 810.89 1203.41 C809 1204 809 1204 805 1204 C805 1204.66 805 1205.32 805 1206 C803.58 1206.37 803.58 1206.37 802.12 1206.75 C796.56 1208.34 791.06 1210.44 785.9 1213.07 C783.06 1214.46 780.04 1215.14 777 1216 C774.95 1216.78 772.92 1217.58 770.89 1218.41 C769 1219 769 1219 765 1219 C765 1219.66 765 1220.32 765 1221 C763.58 1221.37 763.58 1221.37 762.12 1221.75 C756.56 1223.34 751.06 1225.44 745.9 1228.07 C743.06 1229.46 740.04 1230.14 737 1231 C734.95 1231.78 732.92 1232.58 730.89 1233.41 C729 1234 729 1234 725 1234 C725 1234.66 725 1235.32 725 1236 C723.58 1236.37 723.58 1236.37 722.12 1236.75 C716.56 1238.34 711.06 1240.44 705.9 1243.07 C703.06 1244.46 700.04 1245.14 697 1246 C694.95 1246.78 692.92 1247.58 690.89 1248.41 C689 1249 689 1249 685 1249 C685 1249.66 685 1250.32 685 1251 C683.58 1251.37 683.58 1251.37 682.12 1251.75 C676.56 1253.34 671.06 1255.44 665.9 1258.07 C663.06 1259.46 660.04 1260.14 657 1261 C654.95 1261.78 652.92 1262.58 650.89 1263.41 C649 1264 649 1264 645 1264 C645 1264.66 645 1265.32 645 1266 C644.01 1266.27 643.02 1266.54 642 1266.81 C637.05 1268.23 632.28 1270.09 627.5 1272 C624.02 1273.39 620.51 1274.69 617 1276 C615.5 1276.56 614 1277.12 612.5 1277.69 C611.35 1278.12 610.19 1278.55 609 1279 C609 1279.33 609 1279.66 609 1280 C601.08 1280 593.16 1280 585 1280 C584.67 1279.01 584.34 1278.02 584 1277 C583.39 1276.95 582.77 1276.9 582.14 1276.85 C580.92 1276.74 580.92 1276.74 579.69 1276.62 C578.49 1276.52 578.49 1276.52 577.26 1276.41 C575 1276 575 1276 572 1274 C570.5 1273.47 568.97 1273 567.44 1272.56 C566.56 1272.31 565.67 1272.05 564.77 1271.79 C563.85 1271.53 562.94 1271.27 562 1271 C556.9 1269.51 551.93 1267.97 547 1266 C545.34 1265.49 543.67 1264.99 542 1264.5 C537.81 1263.26 533.83 1261.78 529.81 1260.06 C526.37 1258.76 522.87 1257.76 519.34 1256.72 C516.83 1255.95 514.44 1254.98 512 1254 C510.34 1253.49 508.67 1252.99 507 1252.5 C503.57 1251.49 500.32 1250.33 497 1249 C495.34 1248.49 493.67 1247.99 492 1247.5 C488.57 1246.49 485.32 1245.33 482 1244 C480.34 1243.49 478.67 1242.99 477 1242.5 C473.57 1241.49 470.32 1240.33 467 1239 C465.34 1238.49 463.67 1237.99 462 1237.5 C458.57 1236.49 455.32 1235.33 452 1234 C450.34 1233.49 448.67 1232.99 447 1232.5 C443.57 1231.49 440.32 1230.33 437 1229 C433.68 1227.95 430.34 1226.98 427 1226 C421.12 1224.28 415.44 1222.48 409.81 1220.06 C406.37 1218.76 402.87 1217.76 399.34 1216.72 C396.83 1215.95 394.44 1214.98 392 1214 C390.34 1213.49 388.67 1212.99 387 1212.5 C383.57 1211.49 380.32 1210.33 377 1209 C375.34 1208.49 373.67 1207.99 372 1207.5 C368.57 1206.49 365.32 1205.33 362 1204 C360.34 1203.49 358.67 1202.99 357 1202.5 C353.57 1201.49 350.32 1200.33 347 1199 C345.34 1198.49 343.67 1197.99 342 1197.5 C338.57 1196.49 335.32 1195.33 332 1194 C330.34 1193.49 328.67 1192.99 327 1192.5 C323.57 1191.49 320.32 1190.33 317 1189 C315.34 1188.49 313.67 1187.99 312 1187.5 C308.57 1186.49 305.32 1185.33 302 1184 C300.34 1183.49 298.67 1182.99 297 1182.5 C293.57 1181.49 290.32 1180.33 287 1179 C285.34 1178.49 283.67 1177.99 282 1177.5 C278.57 1176.49 275.32 1175.33 272 1174 C270.34 1173.49 268.67 1172.99 267 1172.5 C263.57 1171.49 260.32 1170.33 257 1169 C255.34 1168.49 253.67 1167.99 252 1167.5 C248.57 1166.49 245.32 1165.33 242 1164 C240.34 1163.49 238.67 1162.99 237 1162.5 C233.57 1161.49 230.32 1160.33 227 1159 C225.34 1158.49 223.67 1157.99 222 1157.5 C218.57 1156.49 215.32 1155.33 212 1154 C210.34 1153.49 208.67 1152.99 207 1152.5 C203.57 1151.49 200.32 1150.33 197 1149 C195.34 1148.49 193.67 1147.99 192 1147.5 C188.57 1146.49 185.32 1145.33 182 1144 C180.34 1143.49 178.67 1142.99 177 1142.5 C173.57 1141.49 170.32 1140.33 167 1139 C165.34 1138.49 163.67 1137.99 162 1137.5 C158.57 1136.49 155.32 1135.33 152 1134 C150.34 1133.49 148.67 1132.99 147 1132.5 C143.57 1131.49 140.32 1130.33 137 1129 C133.68 1127.95 130.34 1126.98 127 1126 C121.64 1124.41 116.29 1122.81 111 1121 C111 1120.34 111 1119.68 111 1119 C110.37 1118.8 109.75 1118.59 109.1 1118.38 C108.28 1118.11 107.47 1117.84 106.62 1117.56 C105.81 1117.3 105 1117.03 104.16 1116.75 C102 1116 102 1116 100 1115 C100 1114.34 100 1113.68 100 1113 C99.34 1113 98.68 1113 98 1113 C90.81 1105.63 89.57 1098.04 89.38 1088.06 C89.32 1086.18 89.27 1084.29 89.21 1082.41 C89.19 1081.59 89.18 1080.76 89.16 1079.91 C89.21 1077.99 89.21 1077.99 88 1077 C87.78 1075.28 87.63 1073.56 87.5 1071.83 C87.42 1070.77 87.33 1069.71 87.25 1068.62 C87.17 1067.51 87.08 1066.4 87 1065.25 C86.84 1063.07 86.67 1060.89 86.5 1058.7 C86.39 1057.24 86.39 1057.24 86.28 1055.75 C86.05 1053.02 86.05 1053.02 85.49 1050.45 C85 1047.99 84.81 1045.68 84.72 1043.17 C84.68 1042.29 84.64 1041.41 84.61 1040.5 C84.53 1038.65 84.46 1036.8 84.39 1034.95 C84.36 1034.08 84.32 1033.2 84.28 1032.3 C84.25 1031.5 84.22 1030.7 84.19 1029.87 C84.2 1027.99 84.2 1027.99 83 1027 C82.78 1025.28 82.63 1023.56 82.5 1021.83 C82.42 1020.77 82.33 1019.71 82.25 1018.62 C82.17 1017.51 82.08 1016.4 82 1015.25 C81.84 1013.07 81.67 1010.89 81.5 1008.7 C81.39 1007.24 81.39 1007.24 81.28 1005.75 C81.05 1003.02 81.05 1003.02 80.49 1000.45 C80 997.99 79.81 995.68 79.72 993.17 C79.66 991.85 79.66 991.85 79.61 990.5 C79.53 988.65 79.46 986.8 79.39 984.95 C79.36 984.08 79.32 983.2 79.28 982.3 C79.25 981.5 79.22 980.7 79.19 979.87 C79.2 977.99 79.2 977.99 78 977 C77.78 975.28 77.63 973.56 77.5 971.83 C77.42 970.77 77.33 969.71 77.25 968.62 C77.17 967.51 77.08 966.4 77 965.25 C76.84 963.07 76.67 960.89 76.5 958.7 C76.39 957.24 76.39 957.24 76.28 955.75 C76.05 953.02 76.05 953.02 75.49 950.45 C75 947.99 74.81 945.68 74.72 943.17 C74.66 941.85 74.66 941.85 74.61 940.5 C74.53 938.65 74.46 936.8 74.39 934.95 C74.36 934.08 74.32 933.2 74.28 932.3 C74.25 931.5 74.22 930.7 74.19 929.87 C74.2 927.99 74.2 927.99 73 927 C72.78 925.28 72.63 923.56 72.5 921.83 C72.42 920.77 72.33 919.71 72.25 918.62 C72.17 917.51 72.08 916.4 72 915.25 C71.84 913.07 71.67 910.89 71.5 908.7 C71.39 907.24 71.39 907.24 71.28 905.75 C71.05 903.02 71.05 903.02 70.49 900.45 C70 897.99 69.81 895.68 69.72 893.17 C69.66 891.85 69.66 891.85 69.61 890.5 C69.53 888.65 69.46 886.8 69.39 884.95 C69.36 884.08 69.32 883.2 69.28 882.3 C69.25 881.5 69.22 880.7 69.19 879.87 C69.2 877.99 69.2 877.99 68 877 C67.78 875.28 67.63 873.56 67.5 871.83 C67.42 870.77 67.33 869.71 67.25 868.62 C67.17 867.51 67.08 866.4 67 865.25 C66.84 863.07 66.67 860.89 66.5 858.7 C66.39 857.24 66.39 857.24 66.28 855.75 C66.05 853.02 66.05 853.02 65.49 850.45 C65 847.99 64.81 845.68 64.72 843.17 C64.66 841.85 64.66 841.85 64.61 840.5 C64.53 838.65 64.46 836.8 64.39 834.95 C64.36 834.08 64.32 833.2 64.28 832.3 C64.25 831.5 64.22 830.7 64.19 829.87 C64.2 827.99 64.2 827.99 63 827 C62.78 825.26 62.63 823.51 62.5 821.76 C62.42 820.69 62.33 819.63 62.25 818.53 C62.17 817.4 62.08 816.28 62 815.12 C61.84 812.92 61.67 810.71 61.5 808.51 C61.39 807.03 61.39 807.03 61.28 805.53 C61.08 802.88 61.08 802.88 60 800 C59.86 798.31 59.78 796.62 59.72 794.93 C59.66 793.46 59.66 793.46 59.61 791.96 C59.53 789.9 59.46 787.83 59.39 785.76 C59.34 784.3 59.34 784.3 59.28 782.8 C59.25 781.91 59.22 781.01 59.19 780.09 C59.23 778.01 59.23 778.01 58 777 C57.78 775.26 57.63 773.51 57.5 771.76 C57.42 770.69 57.33 769.63 57.25 768.53 C57.17 767.4 57.08 766.28 57 765.12 C56.84 762.92 56.67 760.71 56.5 758.51 C56.39 757.03 56.39 757.03 56.28 755.53 C56.08 752.88 56.08 752.88 55 750 C54.86 748.31 54.78 746.62 54.72 744.93 C54.66 743.46 54.66 743.46 54.61 741.96 C54.53 739.9 54.46 737.83 54.39 735.76 C54.34 734.3 54.34 734.3 54.28 732.8 C54.25 731.91 54.22 731.01 54.19 730.09 C54.23 728.01 54.23 728.01 53 727 C52.78 725.26 52.63 723.51 52.5 721.76 C52.42 720.69 52.33 719.63 52.25 718.53 C52.17 717.4 52.08 716.28 52 715.12 C51.84 712.92 51.67 710.71 51.5 708.51 C51.39 707.03 51.39 707.03 51.28 705.53 C51.08 702.88 51.08 702.88 50 700 C49.86 698.31 49.78 696.62 49.72 694.93 C49.66 693.46 49.66 693.46 49.61 691.96 C49.53 689.9 49.46 687.83 49.39 685.76 C49.34 684.3 49.34 684.3 49.28 682.8 C49.25 681.91 49.22 681.01 49.19 680.09 C49.23 678.01 49.23 678.01 48 677 C47.78 675.26 47.63 673.51 47.5 671.76 C47.42 670.69 47.34 669.63 47.25 668.53 C47.17 667.4 47.09 666.28 47 665.12 C46.84 662.92 46.67 660.71 46.5 658.51 C46.39 657.03 46.39 657.03 46.28 655.53 C46.08 652.88 46.08 652.88 45 650 C44.86 648.31 44.78 646.62 44.72 644.93 C44.66 643.46 44.66 643.46 44.61 641.96 C44.53 639.9 44.46 637.83 44.39 635.76 C44.34 634.3 44.34 634.3 44.28 632.8 C44.25 631.91 44.22 631.01 44.19 630.09 C44.23 628.01 44.23 628.01 43 627 C42.78 625.26 42.63 623.51 42.5 621.76 C42.42 620.69 42.34 619.63 42.25 618.53 C42.17 617.4 42.09 616.28 42 615.12 C41.84 612.92 41.67 610.71 41.5 608.51 C41.39 607.03 41.39 607.03 41.28 605.53 C41.08 602.88 41.08 602.88 40 600 C39.86 598.31 39.78 596.62 39.72 594.93 C39.66 593.46 39.66 593.46 39.61 591.96 C39.53 589.9 39.46 587.83 39.39 585.76 C39.34 584.3 39.34 584.3 39.28 582.8 C39.25 581.91 39.22 581.01 39.19 580.09 C39.23 578.01 39.23 578.01 38 577 C37.78 575.26 37.63 573.51 37.5 571.76 C37.42 570.69 37.34 569.63 37.25 568.53 C37.17 567.4 37.09 566.28 37 565.12 C36.84 562.92 36.67 560.71 36.5 558.51 C36.39 557.03 36.39 557.03 36.28 555.53 C36.08 552.88 36.08 552.88 35 550 C34.86 548.31 34.78 546.62 34.72 544.93 C34.66 543.46 34.66 543.46 34.61 541.96 C34.53 539.9 34.46 537.83 34.39 535.76 C34.34 534.3 34.34 534.3 34.28 532.8 C34.25 531.91 34.22 531.01 34.19 530.09 C34.23 528.01 34.23 528.01 33 527 C32.78 525.26 32.63 523.51 32.5 521.76 C32.42 520.69 32.34 519.63 32.25 518.53 C32.17 517.4 32.09 516.28 32 515.12 C31.84 512.92 31.67 510.71 31.5 508.51 C31.39 507.03 31.39 507.03 31.28 505.53 C31.08 502.88 31.08 502.88 30 500 C29.86 498.31 29.78 496.62 29.72 494.93 C29.66 493.46 29.66 493.46 29.61 491.96 C29.53 489.9 29.46 487.83 29.39 485.76 C29.34 484.3 29.34 484.3 29.28 482.8 C29.25 481.91 29.22 481.01 29.19 480.09 C29.23 478.01 29.23 478.01 28 477 C27.78 475.26 27.63 473.51 27.5 471.76 C27.42 470.69 27.34 469.63 27.25 468.53 C27.17 467.4 27.09 466.28 27 465.12 C26.84 462.92 26.67 460.71 26.5 458.51 C26.39 457.03 26.39 457.03 26.28 455.53 C26.08 452.88 26.08 452.88 25 450 C24.86 448.31 24.78 446.62 24.72 444.93 C24.66 443.46 24.66 443.46 24.61 441.96 C24.53 439.9 24.46 437.83 24.39 435.76 C24.34 434.3 24.34 434.3 24.28 432.8 C24.25 431.91 24.22 431.01 24.19 430.09 C24.23 428.01 24.23 428.01 23 427 C22.78 425.26 22.63 423.51 22.5 421.76 C22.42 420.69 22.34 419.63 22.25 418.53 C22.17 417.4 22.09 416.28 22 415.12 C21.84 412.92 21.67 410.71 21.5 408.51 C21.39 407.03 21.39 407.03 21.28 405.53 C21.08 402.88 21.08 402.88 20 400 C19.86 398.31 19.78 396.62 19.72 394.93 C19.66 393.46 19.66 393.46 19.61 391.96 C19.53 389.9 19.46 387.83 19.39 385.76 C19.34 384.3 19.34 384.3 19.28 382.8 C19.25 381.91 19.22 381.01 19.19 380.09 C19.23 378.01 19.23 378.01 18 377 C17.78 375.26 17.63 373.51 17.5 371.76 C17.42 370.69 17.34 369.63 17.25 368.53 C17.17 367.4 17.09 366.28 17 365.12 C16.84 362.92 16.67 360.71 16.5 358.51 C16.43 357.52 16.36 356.54 16.28 355.53 C16.08 352.88 16.08 352.88 15 350 C14.86 348.31 14.78 346.62 14.72 344.93 C14.68 343.95 14.64 342.97 14.61 341.96 C14.53 339.9 14.46 337.83 14.39 335.76 C14.36 334.79 14.32 333.81 14.28 332.8 C14.25 331.91 14.22 331.01 14.19 330.09 C14.23 328.01 14.23 328.01 13 327 C12.78 325.26 12.63 323.51 12.5 321.76 C12.38 320.16 12.38 320.16 12.25 318.53 C12.17 317.4 12.09 316.28 12 315.12 C11.84 312.92 11.67 310.71 11.5 308.51 C11.43 307.52 11.36 306.54 11.28 305.53 C11.08 302.88 11.08 302.88 10 300 C9.86 298.31 9.78 296.62 9.72 294.93 C9.68 293.95 9.64 292.97 9.61 291.96 C9.53 289.9 9.46 287.83 9.39 285.76 C9.36 284.79 9.32 283.81 9.28 282.8 C9.25 281.91 9.22 281.01 9.19 280.09 C9.23 278.01 9.23 278.01 8 277 C7.78 275.26 7.63 273.51 7.5 271.76 C7.38 270.16 7.38 270.16 7.25 268.53 C7.17 267.4 7.09 266.28 7 265.12 C6.84 262.92 6.67 260.71 6.5 258.51 C6.43 257.52 6.36 256.54 6.28 255.53 C6.08 252.88 6.08 252.88 5 250 C4.86 248.31 4.78 246.62 4.72 244.93 C4.68 243.95 4.64 242.97 4.61 241.96 C4.53 239.9 4.46 237.83 4.39 235.76 C4.36 234.79 4.32 233.81 4.28 232.8 C4.24 231.46 4.24 231.46 4.19 230.09 C4.23 228.01 4.23 228.01 3 227 C2.78 225.26 2.63 223.51 2.5 221.76 C2.42 220.69 2.34 219.63 2.25 218.53 C2.13 216.84 2.13 216.84 2 215.12 C1.84 212.92 1.67 210.71 1.5 208.51 C1.43 207.52 1.36 206.54 1.28 205.53 C1.08 202.88 1.08 202.88 0 200 C-0.14 198.31 -0.22 196.62 -0.28 194.93 C-0.32 193.95 -0.36 192.97 -0.39 191.96 C-0.47 189.9 -0.54 187.83 -0.61 185.76 C-0.64 184.79 -0.68 183.81 -0.72 182.8 C-0.76 181.46 -0.76 181.46 -0.81 180.09 C-0.77 178.01 -0.77 178.01 -2 177 C-2.22 175.26 -2.37 173.51 -2.5 171.76 C-2.58 170.69 -2.66 169.63 -2.75 168.53 C-2.87 166.84 -2.87 166.84 -3 165.12 C-3.16 162.92 -3.33 160.71 -3.5 158.51 C-3.57 157.52 -3.64 156.54 -3.72 155.53 C-3.92 152.88 -3.92 152.88 -5 150 C-5.14 148.31 -5.22 146.62 -5.28 144.93 C-5.32 143.95 -5.36 142.97 -5.39 141.96 C-5.47 139.9 -5.54 137.83 -5.61 135.76 C-5.64 134.79 -5.68 133.81 -5.72 132.8 C-5.76 131.46 -5.76 131.46 -5.81 130.09 C-5.77 128.01 -5.77 128.01 -7 127 C-7.22 125.26 -7.37 123.51 -7.5 121.76 C-7.62 120.16 -7.62 120.16 -7.75 118.53 C-7.83 117.4 -7.91 116.28 -8 115.12 C-8.16 112.92 -8.33 110.71 -8.5 108.51 C-8.57 107.52 -8.64 106.54 -8.72 105.53 C-8.92 102.88 -8.92 102.88 -10 100 C-10.14 98.31 -10.22 96.62 -10.28 94.93 C-10.32 93.95 -10.36 92.97 -10.39 91.96 C-10.47 89.9 -10.54 87.83 -10.61 85.76 C-10.66 84.3 -10.66 84.3 -10.72 82.8 C-10.75 81.91 -10.78 81.01 -10.81 80.09 C-10.77 78.01 -10.77 78.01 -12 77 C-12.22 75.26 -12.37 73.51 -12.5 71.76 C-12.58 70.69 -12.66 69.63 -12.75 68.53 C-12.83 67.4 -12.91 66.28 -13 65.12 C-13.16 62.92 -13.33 60.71 -13.5 58.51 C-13.57 57.52 -13.64 56.54 -13.72 55.53 C-13.92 52.88 -13.92 52.88 -15 50 C-15.08 47.34 -15.12 44.71 -15.1 42.05 C-15.1 41.28 -15.09 40.51 -15.09 39.71 C-15.09 37.24 -15.08 34.78 -15.06 32.31 C-15.06 30.64 -15.05 28.97 -15.05 27.29 C-15.04 23.2 -15.02 19.1 -15 15 C-14.34 14.67 -13.68 14.34 -13 14 C-12.66 12.95 -12.66 12.95 -12.31 11.88 C-10.46 7.81 -7.61 4.64 -4 2 C-2.68 2 -1.36 2 0 2 C0 1.34 0 0.68 0 0 Z M41 53 C41.54 59.02 42.09 65.03 42.64 71.05 C42.82 73.09 43.01 75.13 43.19 77.17 C44.55 92.18 45.96 107.17 47.48 122.16 C47.7 124.34 47.92 126.52 48.14 128.7 C48.6 133.29 49.07 137.89 49.53 142.49 C50.28 149.9 51.03 157.31 51.77 164.72 C52.83 175.24 53.89 185.76 54.95 196.28 C55.02 196.94 55.08 197.6 55.15 198.28 C55.42 200.95 55.69 203.62 55.96 206.28 C58.12 227.67 60.27 249.07 62.43 270.46 C62.69 273.04 62.95 275.62 63.21 278.2 C67.51 320.96 71.75 363.73 75.92 406.5 C78.93 437.26 82.01 468.02 85.16 498.76 C85.54 502.44 85.92 506.11 86.29 509.79 C86.72 514.01 87.16 518.23 87.59 522.46 C90.92 555.06 94.16 587.67 97.38 620.28 C98.26 629.2 99.14 638.13 100.03 647.05 C100.15 648.31 100.28 649.57 100.4 650.86 C103.08 677.93 105.82 705 108.56 732.06 C112.33 769.23 116.01 806.41 119.65 843.59 C124.34 891.65 129.2 939.68 134.1 987.72 C134.32 989.89 134.54 992.06 134.76 994.24 C134.83 994.94 134.9 995.65 134.98 996.38 C135.12 997.78 135.26 999.19 135.41 1000.6 C135.87 1005.17 136.34 1009.74 136.81 1014.31 C137.05 1016.73 137.3 1019.16 137.55 1021.59 C137.67 1022.76 137.79 1023.92 137.91 1025.12 C138.57 1031.58 139.19 1038.04 139.78 1044.5 C139.98 1046.63 140.17 1048.76 140.37 1050.88 C140.56 1052.9 140.73 1054.92 140.91 1056.94 C141.02 1058.17 141.14 1059.4 141.25 1060.66 C141.35 1061.74 141.45 1062.82 141.54 1063.94 C141.69 1064.95 141.85 1065.96 142 1067 C142.21 1068.56 142.21 1068.56 142.42 1070.15 C145 1074.8 149.11 1075.42 154 1077 C155.27 1077.44 156.54 1077.87 157.81 1078.32 C162.49 1079.93 167.19 1081.5 171.88 1083.07 C173.71 1083.68 175.53 1084.29 177.35 1084.9 C182.34 1086.57 187.32 1088.24 192.31 1089.91 C196.59 1091.34 200.88 1092.77 205.16 1094.21 C219.25 1098.93 233.35 1103.64 247.45 1108.35 C251.12 1109.58 254.79 1110.8 258.46 1112.03 C281.25 1119.65 304.05 1127.27 326.85 1134.88 C332.13 1136.64 337.4 1138.4 342.68 1140.16 C343.33 1140.38 343.99 1140.6 344.66 1140.82 C365.92 1147.92 387.18 1155.04 408.44 1162.15 C430.93 1169.69 453.42 1177.2 475.92 1184.71 C488.17 1188.8 500.43 1192.89 512.68 1197 C523.11 1200.5 533.54 1203.99 543.97 1207.46 C549.3 1209.23 554.62 1211.01 559.94 1212.8 C564.81 1214.44 569.68 1216.06 574.56 1217.67 C576.32 1218.26 578.08 1218.85 579.84 1219.45 C582.23 1220.26 584.63 1221.05 587.03 1221.84 C587.71 1222.08 588.4 1222.31 589.1 1222.56 C597.22 1225.15 604.51 1223.18 612.22 1220.15 C612.99 1219.86 613.75 1219.57 614.54 1219.27 C617.05 1218.31 619.56 1217.34 622.06 1216.38 C623.84 1215.69 625.63 1215.02 627.41 1214.34 C631.11 1212.93 634.8 1211.52 638.5 1210.1 C646.16 1207.17 653.85 1204.3 661.53 1201.42 C665.69 1199.87 669.84 1198.31 674 1196.75 C675.67 1196.12 677.33 1195.5 679 1194.88 C680.24 1194.41 680.24 1194.41 681.5 1193.94 C889 1116.12 889 1116.12 891.5 1115.19 C893.17 1114.56 894.83 1113.94 896.5 1113.31 C900.66 1111.75 904.83 1110.19 908.99 1108.63 C916.54 1105.8 924.08 1102.97 931.63 1100.14 C933.33 1099.5 935.02 1098.86 936.72 1098.22 C940.91 1096.66 945.09 1095.08 949.27 1093.5 C956.72 1090.7 964.17 1087.92 971.68 1085.27 C974.97 1084.11 978.25 1082.94 981.53 1081.77 C983.08 1081.22 984.63 1080.68 986.18 1080.15 C988.31 1079.42 990.43 1078.66 992.55 1077.9 C994.36 1077.28 994.36 1077.28 996.19 1076.64 C999.85 1074.51 999.93 1073.01 1001 1069 C1001.32 1067.01 1001.57 1065 1001.77 1062.99 C1001.9 1061.8 1002.02 1060.61 1002.14 1059.39 C1002.33 1057.43 1002.33 1057.43 1002.53 1055.44 C1002.67 1054.04 1002.81 1052.63 1002.95 1051.22 C1003.35 1047.35 1003.73 1043.47 1004.11 1039.59 C1004.53 1035.38 1004.95 1031.16 1005.38 1026.95 C1006.12 1019.57 1006.85 1012.18 1007.59 1004.8 C1008.68 993.83 1009.77 982.86 1010.87 971.9 C1012.71 953.47 1014.55 935.03 1016.39 916.6 C1018.21 898.26 1020.04 879.92 1021.88 861.58 C1021.99 860.43 1022.1 859.29 1022.22 858.11 C1022.8 852.3 1023.38 846.5 1023.96 840.69 C1025.14 828.91 1026.32 817.13 1027.5 805.35 C1027.67 803.58 1027.67 803.58 1027.85 801.78 C1030.39 776.34 1032.93 750.89 1035.47 725.44 C1041.05 669.46 1046.65 613.48 1052.25 557.5 C1052.92 550.83 1053.59 544.16 1054.25 537.5 C1054.42 535.85 1054.42 535.85 1054.59 534.17 C1054.92 530.85 1055.25 527.54 1055.58 524.22 C1055.91 520.92 1056.24 517.62 1056.57 514.32 C1056.79 512.14 1057.01 509.95 1057.23 507.76 C1057.77 502.32 1058.32 496.89 1058.86 491.45 C1061.84 461.64 1064.82 431.84 1067.8 402.03 C1068.1 399.09 1068.39 396.16 1068.68 393.22 C1070.6 374.05 1072.52 354.88 1074.43 335.71 C1075.37 326.27 1076.32 316.83 1077.26 307.39 C1077.35 306.45 1077.45 305.51 1077.54 304.55 C1080.53 274.63 1083.53 244.71 1086.54 214.79 C1087.37 206.54 1088.19 198.28 1089.02 190.02 C1089.14 188.87 1089.25 187.72 1089.37 186.53 C1089.95 180.74 1090.53 174.96 1091.11 169.17 C1092.36 156.75 1093.61 144.32 1094.86 131.9 C1095.7 123.47 1096.55 115.05 1097.39 106.62 C1097.88 101.74 1098.37 96.86 1098.86 91.99 C1099.32 87.51 1099.77 83.03 1100.21 78.55 C1100.38 76.92 1100.54 75.3 1100.7 73.67 C1100.93 71.47 1101.15 69.26 1101.37 67.06 C1101.55 65.22 1101.55 65.22 1101.74 63.34 C1101.98 60.21 1102.05 57.14 1102 54 C1099.08 52.54 1096.16 52.86 1092.96 52.88 C1091.85 52.87 1091.85 52.87 1090.73 52.87 C1088.22 52.87 1085.72 52.87 1083.22 52.88 C1081.41 52.88 1079.6 52.88 1077.79 52.87 C1072.78 52.87 1067.77 52.87 1062.75 52.88 C1057.32 52.88 1051.88 52.88 1046.45 52.88 C1036.9 52.88 1027.36 52.88 1017.82 52.88 C1003.63 52.89 989.44 52.89 975.26 52.89 C951.39 52.88 927.53 52.89 903.67 52.89 C880.03 52.9 856.39 52.9 832.75 52.91 C831.65 52.91 831.65 52.91 830.53 52.91 C823.83 52.91 817.13 52.91 810.43 52.91 C793.77 52.91 777.11 52.91 760.45 52.91 C759.69 52.91 758.94 52.91 758.15 52.91 C721.23 52.91 684.32 52.92 647.4 52.92 C634.58 52.93 621.77 52.93 608.95 52.93 C608.16 52.93 607.36 52.93 606.54 52.93 C569.61 52.94 532.68 52.94 495.74 52.94 C493.34 52.95 490.95 52.95 488.55 52.95 C472.66 52.95 456.78 52.95 440.89 52.95 C409.28 52.95 377.67 52.95 346.06 52.96 C344.56 52.96 343.05 52.96 341.54 52.96 C259.13 52.97 176.71 52.98 41 53 Z " fill="#000100" transform="translate(67,0)"/>
<path d="M0 0 C1.11 -0 2.22 -0.01 3.36 -0.01 C7.07 -0.03 10.78 -0.02 14.49 -0.02 C17.15 -0.03 19.81 -0.04 22.48 -0.04 C28.95 -0.06 35.43 -0.07 41.91 -0.07 C47.18 -0.07 52.44 -0.07 57.71 -0.08 C72.66 -0.1 87.61 -0.1 102.56 -0.1 C103.76 -0.1 103.76 -0.1 105 -0.1 C105.8 -0.1 106.61 -0.1 107.44 -0.1 C120.5 -0.1 133.56 -0.12 146.62 -0.15 C160.05 -0.18 173.47 -0.19 186.9 -0.19 C194.43 -0.19 201.96 -0.2 209.49 -0.22 C215.91 -0.23 222.32 -0.24 228.73 -0.23 C232 -0.22 235.27 -0.22 238.54 -0.24 C242.09 -0.25 245.64 -0.24 249.19 -0.23 C250.21 -0.24 251.23 -0.25 252.28 -0.26 C260.51 -0.18 267.72 1.74 274.74 6.1 C277.31 8.82 278.9 11.55 280.6 14.89 C281.2 16.04 281.81 17.19 282.43 18.37 C286.33 27.95 282.6 38.44 280.16 47.98 C279.78 49.52 279.4 51.06 279.02 52.6 C278.01 56.65 276.99 60.7 275.97 64.75 C274.96 68.74 273.97 72.74 272.98 76.73 C271.2 83.86 269.4 90.98 267.59 98.11 C266.37 102.95 265.16 107.8 263.96 112.65 C263.17 115.85 262.37 119.04 261.57 122.24 C261.2 123.73 260.83 125.23 260.46 126.73 C257.32 139.61 254.33 150.21 242.76 157.55 C236.45 160.92 230.67 160.89 223.79 159.27 C215.79 156.3 209.76 153.05 205.8 145.35 C201.15 134.13 205.47 121.19 208.31 109.95 C208.67 108.53 209.02 107.1 209.37 105.67 C210.1 102.71 210.84 99.75 211.59 96.79 C212.54 93.01 213.48 89.22 214.41 85.43 C215.14 82.49 215.87 79.56 216.6 76.63 C216.95 75.23 217.3 73.83 217.64 72.44 C218.13 70.49 218.62 68.54 219.11 66.6 C219.38 65.49 219.66 64.39 219.94 63.25 C220.72 60.49 221.66 57.9 222.79 55.27 C222.13 55.27 221.47 55.27 220.79 55.27 C220.79 54.61 220.79 53.95 220.79 53.27 C153.47 53.6 86.15 53.93 16.79 54.27 C17.12 142.05 17.45 229.83 17.79 320.27 C79.82 320.11 79.82 320.11 141.85 319.91 C153.86 319.89 153.86 319.89 159.49 319.89 C163.41 319.88 167.33 319.87 171.25 319.85 C176.26 319.82 181.27 319.81 186.28 319.82 C188.12 319.81 189.95 319.81 191.78 319.79 C212.81 319.62 212.81 319.62 221.5 326.38 C222.39 327.47 222.39 327.47 223.29 328.58 C223.89 329.3 224.5 330.02 225.13 330.76 C235.22 346.06 228.27 366.77 225.16 383.38 C224.66 386.09 224.17 388.8 223.68 391.51 C222.62 397.32 221.55 403.12 220.47 408.92 C218.91 417.32 217.37 425.73 215.83 434.13 C213.94 444.45 212.05 454.78 210.15 465.1 C206.19 486.6 202.26 508.11 198.37 529.62 C197.69 533.42 197 537.22 196.31 541.02 C195.24 546.93 194.17 552.85 193.1 558.76 C192.97 559.48 192.84 560.19 192.7 560.93 C192.06 564.51 191.41 568.09 190.76 571.67 C189.29 579.83 187.81 587.98 186.33 596.14 C185.88 598.59 185.44 601.04 185 603.49 C183.82 610.03 182.61 616.57 181.37 623.11 C180.77 626.36 180.19 629.62 179.62 632.88 C179.22 635.02 178.82 637.16 178.42 639.29 C178.26 640.25 178.1 641.21 177.93 642.2 C176.24 650.89 172.01 658 165 663.51 C158.54 667.39 151.18 669.38 144.02 671.59 C139.51 672.98 135.02 674.41 130.53 675.84 C129.16 676.27 129.16 676.27 127.77 676.72 C119.29 679.4 110.88 682.28 102.47 685.2 C87.67 690.33 72.8 695.21 57.9 700.03 C49.06 702.89 40.24 705.77 31.44 708.72 C30.62 708.99 29.79 709.27 28.94 709.55 C25.08 710.85 21.22 712.14 17.37 713.45 C-10.05 722.69 -10.05 722.69 -21.09 718.06 C-28.04 714.14 -32.48 710.04 -35.03 702.33 C-37.23 693.84 -35.98 688.03 -32.21 680.27 C-31.9 679.61 -31.58 678.96 -31.26 678.28 C-25.5 668.54 -11.01 665.6 -0.94 662.38 C0.45 661.93 1.84 661.48 3.22 661.03 C6.18 660.06 9.14 659.1 12.11 658.14 C16.79 656.63 21.47 655.1 26.15 653.56 C39.44 649.2 52.74 644.85 66.05 640.55 C73.43 638.16 80.79 635.76 88.15 633.33 C92.8 631.79 97.46 630.29 102.12 628.8 C105.01 627.87 107.89 626.91 110.78 625.95 C112.11 625.51 113.45 625.08 114.8 624.66 C122.37 622.61 122.37 622.61 127.45 617.23 C127.56 615.92 127.67 614.62 127.79 613.27 C128.14 611.38 128.52 609.5 128.9 607.62 C129.31 605.36 129.72 603.09 130.13 600.82 C130.36 599.57 130.58 598.33 130.82 597.04 C131.44 593.61 132.06 590.17 132.68 586.74 C133.34 583.07 134.01 579.4 134.67 575.74 C135.96 568.65 137.24 561.57 138.52 554.48 C140.88 541.44 143.24 528.4 145.6 515.36 C146.34 511.28 147.08 507.2 147.82 503.12 C151.41 483.28 155.03 463.45 158.69 443.64 C159.31 440.26 159.93 436.89 160.56 433.52 C160.95 431.38 161.34 429.25 161.74 427.11 C162.02 425.58 162.02 425.58 162.31 424.02 C163.41 418.07 164.51 412.13 165.62 406.18 C166.29 402.58 166.96 398.97 167.62 395.37 C167.92 393.73 168.23 392.09 168.53 390.46 C168.95 388.26 169.35 386.07 169.75 383.88 C169.98 382.66 170.2 381.45 170.44 380.2 C171 377.21 171 377.21 169.79 374.27 C168.85 374.27 167.91 374.26 166.94 374.26 C144.07 374.23 121.2 374.17 98.33 374.08 C87.27 374.04 76.21 374.01 65.15 374 C55.51 373.98 45.87 373.96 36.23 373.91 C31.13 373.89 26.02 373.87 20.92 373.88 C16.11 373.88 11.3 373.86 6.49 373.83 C4.73 373.82 2.97 373.82 1.21 373.82 C-10.62 373.85 -20.78 373.27 -29.82 364.76 C-37.03 357.05 -36.51 346.95 -36.47 337.04 C-36.48 335.7 -36.48 334.36 -36.49 333.02 C-36.5 329.36 -36.49 325.69 -36.49 322.02 C-36.49 318.06 -36.5 314.1 -36.5 310.14 C-36.52 302.39 -36.52 294.64 -36.52 286.89 C-36.51 280.58 -36.52 274.28 -36.52 267.98 C-36.52 267.08 -36.52 266.18 -36.52 265.26 C-36.52 263.43 -36.52 261.61 -36.53 259.79 C-36.54 242.69 -36.53 225.59 -36.53 208.49 C-36.52 192.86 -36.53 177.23 -36.55 161.6 C-36.57 145.54 -36.58 129.47 -36.58 113.41 C-36.58 104.4 -36.58 95.39 -36.59 86.37 C-36.6 78.7 -36.61 71.03 -36.59 63.35 C-36.59 59.44 -36.59 55.53 -36.6 51.62 C-36.61 48.03 -36.61 44.44 -36.59 40.86 C-36.59 38.96 -36.6 37.06 -36.61 35.16 C-36.55 24.82 -35.57 15.58 -28.1 7.92 C-19.84 0.69 -10.51 -0.03 0 0 Z " fill="#000100" transform="translate(728.2141876220703,265.7325744628906)"/>
<path d="M0 0 C1.32 -0 2.64 -0.01 4 -0.01 C7.64 -0.02 11.28 -0.02 14.92 -0.02 C18.85 -0.01 22.79 -0.02 26.72 -0.03 C34.42 -0.04 42.13 -0.04 49.83 -0.04 C56.09 -0.04 62.35 -0.04 68.61 -0.05 C69.5 -0.05 70.39 -0.05 71.31 -0.05 C73.13 -0.05 74.94 -0.05 76.75 -0.05 C93.74 -0.06 110.72 -0.06 127.71 -0.05 C143.24 -0.05 158.76 -0.06 174.29 -0.08 C190.25 -0.1 206.21 -0.11 222.16 -0.1 C231.12 -0.1 240.07 -0.1 249.02 -0.12 C256.65 -0.13 264.27 -0.13 271.89 -0.12 C275.78 -0.11 279.66 -0.11 283.55 -0.12 C287.11 -0.13 290.67 -0.13 294.24 -0.12 C296.12 -0.11 298.01 -0.12 299.9 -0.14 C309.4 -0.08 319.12 0.59 326.23 7.54 C334.35 16.88 335.03 26.91 334.98 38.91 C334.98 40.05 334.99 41.19 334.99 42.36 C335 46.18 334.99 49.99 334.98 53.8 C334.98 56.56 334.99 59.32 334.99 62.09 C335 68.09 335 74.09 334.99 80.1 C334.99 89.02 334.99 97.95 335 106.88 C335.01 122.82 335.01 138.77 335 154.71 C335 168.66 334.99 182.62 335 196.57 C335 197.96 335 197.96 335 199.37 C335 203.13 335 206.89 335 210.64 C335.01 245.88 335 281.13 334.99 316.37 C334.98 347.68 334.98 378.99 334.99 410.3 C335 445.48 335.01 480.66 335 515.84 C335 519.59 335 523.34 335 527.09 C335 528.01 335 528.93 335 529.88 C334.99 543.83 335 557.77 335 571.72 C335.01 587.57 335.01 603.43 335 619.28 C334.99 628.16 334.99 637.03 335 645.9 C335 651.83 335 657.76 334.99 663.68 C334.98 667.06 334.98 670.44 334.99 673.82 C335 677.45 334.99 681.09 334.98 684.73 C334.99 685.78 334.99 686.83 335 687.91 C334.95 696.99 334.49 704.33 327.98 711.14 C326.72 712.49 326.72 712.49 325.43 713.88 C319.59 719.03 313.74 720.49 306.1 720.44 C301.46 720.09 297.07 718.7 292.61 717.43 C291.49 717.12 290.37 716.81 289.21 716.49 C286.06 715.62 282.91 714.73 279.77 713.84 C277.69 713.25 275.61 712.66 273.52 712.08 C262.24 708.92 250.97 705.72 239.7 702.51 C238.82 702.26 237.94 702 237.03 701.75 C228.69 699.37 220.35 696.99 212.02 694.61 C201.45 691.6 190.88 688.59 180.31 685.59 C172.81 683.46 165.32 681.33 157.83 679.19 C153.38 677.91 148.93 676.64 144.47 675.39 C140.29 674.21 136.12 673.01 131.95 671.81 C130.43 671.38 128.9 670.94 127.38 670.52 C103.72 663.89 103.72 663.89 97.73 654.26 C92.91 643.96 91.34 632.44 89.17 621.37 C88.75 619.21 88.32 617.06 87.89 614.9 C86.76 609.24 85.65 603.57 84.53 597.9 C83.42 592.23 82.29 586.57 81.17 580.91 C79.87 574.33 78.56 567.76 77.27 561.18 C75.47 552.03 73.67 542.89 71.76 533.76 C71.47 532.36 71.18 530.97 70.89 529.58 C70.39 527.14 69.87 524.71 69.35 522.29 C67.09 511.4 66.48 502.85 71.96 492.93 C75.69 487.31 80.98 482.71 87.73 481.26 C95.89 480.46 103.88 480.27 110.73 485.26 C123.42 496.51 124.76 519.25 127.81 534.94 C128.27 537.29 128.74 539.64 129.2 541.99 C130.17 546.87 131.13 551.76 132.08 556.65 C133.3 562.92 134.54 569.19 135.77 575.46 C136.96 581.46 138.13 587.45 139.31 593.44 C139.54 594.58 139.76 595.73 139.99 596.91 C140.62 600.12 141.25 603.34 141.88 606.56 C142.07 607.52 142.26 608.47 142.45 609.46 C142.62 610.33 142.79 611.21 142.97 612.1 C143.11 612.86 143.26 613.62 143.42 614.4 C143.73 616.26 143.73 616.26 143.73 618.26 C150.77 620.38 157.82 622.47 164.87 624.53 C165.94 624.84 167 625.15 168.1 625.47 C191.2 632.21 214.32 638.89 237.48 645.45 C238.57 645.76 239.66 646.07 240.78 646.39 C243.93 647.28 247.07 648.17 250.21 649.05 C251.1 649.31 251.99 649.56 252.9 649.82 C259.12 651.57 265.36 653.23 271.61 654.87 C272.49 655.1 273.37 655.33 274.28 655.57 C276.43 656.13 278.58 656.7 280.73 657.26 C280.65 599.88 280.57 542.5 280.49 485.12 C280.48 484.28 280.48 483.43 280.48 482.55 C280.45 464.11 280.43 445.68 280.4 427.24 C280.38 418.2 280.37 409.15 280.36 400.11 C280.36 399.21 280.35 398.31 280.35 397.39 C280.31 368.2 280.27 339 280.23 309.81 C280.19 279.83 280.14 249.84 280.1 219.86 C280.09 215.63 280.08 211.4 280.08 207.17 C280.07 205.92 280.07 205.92 280.07 204.65 C280.05 191.22 280.03 177.79 280.02 164.36 C280 150.87 279.98 137.39 279.96 123.9 C279.94 115.88 279.93 107.85 279.92 99.83 C279.92 93.86 279.91 87.88 279.89 81.91 C279.89 79.48 279.89 77.05 279.89 74.62 C279.88 71.34 279.88 68.06 279.87 64.79 C279.87 63.82 279.87 62.86 279.87 61.87 C280.28 57.74 280.28 57.74 278.73 54.26 C277.16 54.16 275.59 54.13 274.02 54.13 C273 54.13 271.97 54.12 270.92 54.12 C269.21 54.12 269.21 54.12 267.46 54.12 C266.26 54.12 265.06 54.12 263.83 54.11 C260.48 54.11 257.14 54.1 253.79 54.1 C250.19 54.1 246.58 54.09 242.98 54.09 C236.73 54.08 230.48 54.07 224.24 54.06 C214.36 54.05 204.48 54.03 194.6 54.01 C191.22 54 187.85 53.99 184.47 53.99 C183.2 53.98 183.2 53.98 181.91 53.98 C172.29 53.96 162.67 53.94 153.06 53.92 C152.18 53.92 151.3 53.92 150.39 53.92 C136.15 53.89 121.9 53.87 107.66 53.86 C93.04 53.84 78.42 53.81 63.81 53.77 C54.79 53.75 45.77 53.73 36.75 53.73 C30.57 53.73 24.38 53.72 18.2 53.7 C14.63 53.68 11.06 53.68 7.5 53.68 C3.62 53.69 -0.25 53.67 -4.12 53.65 C-5.8 53.66 -5.8 53.66 -7.52 53.67 C-17.72 53.58 -25.27 50.66 -33.27 44.26 C-37.71 39.37 -38.98 33.74 -39.27 27.26 C-38.42 18.76 -35.38 12.23 -29.27 6.26 C-20.99 -0.44 -10.09 -0.03 0 0 Z " fill="#000100" transform="translate(304.2705993652344,265.7393035888672)"/>
<path d="M0 0 C0.33 0 0.66 0 1 0 C1 4.62 1 9.24 1 14 C0.67 14 0.34 14 0 14 C0 9.38 0 4.76 0 0 Z " fill="#FBFDFD" transform="translate(1195,336)"/>
<path d="M0 0 C0.33 0 0.66 0 1 0 C1 4.62 1 9.24 1 14 C0.67 14 0.34 14 0 14 C0 9.38 0 4.76 0 0 Z " fill="#FBFDFD" transform="translate(1200,286)"/>
<path d="M0 0 C0.33 0 0.66 0 1 0 C1 4.62 1 9.24 1 14 C0.67 14 0.34 14 0 14 C0 9.38 0 4.76 0 0 Z " fill="#FBFDFD" transform="translate(1205,236)"/>
<path d="M0 0 C0.33 0 0.66 0 1 0 C1 4.62 1 9.24 1 14 C0.67 14 0.34 14 0 14 C0 9.38 0 4.76 0 0 Z " fill="#FBFDFD" transform="translate(1210,186)"/>
<path d="M0 0 C0.33 0 0.66 0 1 0 C1 4.62 1 9.24 1 14 C0.67 14 0.34 14 0 14 C0 9.38 0 4.76 0 0 Z " fill="#FBFDFD" transform="translate(1215,136)"/>
<path d="M0 0 C0.33 0 0.66 0 1 0 C1 4.62 1 9.24 1 14 C0.67 14 0.34 14 0 14 C0 9.38 0 4.76 0 0 Z " fill="#FBFDFD" transform="translate(1220,86)"/>
<path d="M0 0 C0.33 0 0.66 0 1 0 C1 4.62 1 9.24 1 14 C0.67 14 0.34 14 0 14 C0 9.38 0 4.76 0 0 Z " fill="#FBFDFD" transform="translate(1225,36)"/>
<path d="M0 0 C0.33 0 0.66 0 1 0 C1 3.96 1 7.92 1 12 C0.67 12 0.34 12 0 12 C0 8.04 0 4.08 0 0 Z " fill="#FBFDFD" transform="translate(1125,1039)"/>
<path d="M0 0 C0.33 0 0.66 0 1 0 C1 3.96 1 7.92 1 12 C0.67 12 0.34 12 0 12 C0 8.04 0 4.08 0 0 Z " fill="#FBFDFD" transform="translate(1130,989)"/>
<path d="M0 0 C0.33 0 0.66 0 1 0 C1 3.96 1 7.92 1 12 C0.67 12 0.34 12 0 12 C0 8.04 0 4.08 0 0 Z " fill="#FBFDFD" transform="translate(1135,939)"/>
<path d="M0 0 C0.33 0 0.66 0 1 0 C1 3.96 1 7.92 1 12 C0.67 12 0.34 12 0 12 C0 8.04 0 4.08 0 0 Z " fill="#FBFDFD" transform="translate(1140,889)"/>
<path d="M0 0 C0.33 0 0.66 0 1 0 C1 3.96 1 7.92 1 12 C0.67 12 0.34 12 0 12 C0 8.04 0 4.08 0 0 Z " fill="#FBFDFD" transform="translate(1145,839)"/>
<path d="M0 0 C0.33 0 0.66 0 1 0 C1 3.96 1 7.92 1 12 C0.67 12 0.34 12 0 12 C0 8.04 0 4.08 0 0 Z " fill="#FBFDFD" transform="translate(1150,789)"/>
<path d="M0 0 C0.33 0 0.66 0 1 0 C1 3.63 1 7.26 1 11 C0.67 11 0.34 11 0 11 C0 7.37 0 3.74 0 0 Z " fill="#FBFDFD" transform="translate(1155,739)"/>
<path d="M0 0 C0.33 0 0.66 0 1 0 C1 3.63 1 7.26 1 11 C0.67 11 0.34 11 0 11 C0 7.37 0 3.74 0 0 Z " fill="#FBFDFD" transform="translate(1160,689)"/>
<path d="M0 0 C0.33 0 0.66 0 1 0 C1 3.63 1 7.26 1 11 C0.67 11 0.34 11 0 11 C0 7.37 0 3.74 0 0 Z " fill="#FBFDFD" transform="translate(1165,639)"/>
<path d="M0 0 C0.33 0 0.66 0 1 0 C1 3.63 1 7.26 1 11 C0.67 11 0.34 11 0 11 C0 7.37 0 3.74 0 0 Z " fill="#FBFDFD" transform="translate(1170,589)"/>
<path d="M0 0 C0.33 0 0.66 0 1 0 C1 3.63 1 7.26 1 11 C0.67 11 0.34 11 0 11 C0 7.37 0 3.74 0 0 Z " fill="#FBFDFD" transform="translate(1175,539)"/>
<path d="M0 0 C0.33 0 0.66 0 1 0 C1 3.63 1 7.26 1 11 C0.67 11 0.34 11 0 11 C0 7.37 0 3.74 0 0 Z " fill="#FBFDFD" transform="translate(1180,489)"/>
<path d="M0 0 C0.33 0 0.66 0 1 0 C1 3.63 1 7.26 1 11 C0.67 11 0.34 11 0 11 C0 7.37 0 3.74 0 0 Z " fill="#FBFDFD" transform="translate(1185,439)"/>
<path d="M0 0 C0.33 0 0.66 0 1 0 C1 3.63 1 7.26 1 11 C0.67 11 0.34 11 0 11 C0 7.37 0 3.74 0 0 Z " fill="#FBFDFD" transform="translate(1190,389)"/>
<path d="M0 0 C0.33 0 0.66 0 1 0 C1 2.97 1 5.94 1 9 C0.67 9 0.34 9 0 9 C0 6.03 0 3.06 0 0 Z " fill="#FBFDFD" transform="translate(1120,1089)"/>
<path d="M0 0 C0.33 0 0.66 0 1 0 C1 2.31 1 4.62 1 7 C0.67 7 0.34 7 0 7 C0 4.69 0 2.38 0 0 Z " fill="#FBFDFD" transform="translate(1197,323)"/>
<path d="M0 0 C0.33 0 0.66 0 1 0 C1 2.31 1 4.62 1 7 C0.67 7 0.34 7 0 7 C0 4.69 0 2.38 0 0 Z " fill="#FBFDFD" transform="translate(1202,273)"/>
<path d="M0 0 C0.33 0 0.66 0 1 0 C1 2.31 1 4.62 1 7 C0.67 7 0.34 7 0 7 C0 4.69 0 2.38 0 0 Z " fill="#FAF4DA" transform="translate(1212,173)"/>
<path d="M0 0 C0.33 0 0.66 0 1 0 C1 2.31 1 4.62 1 7 C0.67 7 0.34 7 0 7 C0 4.69 0 2.38 0 0 Z " fill="#FAECB7" transform="translate(1217,123)"/>
<path d="M0 0 C0.33 0 0.66 0 1 0 C1 1.98 1 3.96 1 6 C0.67 6 0.34 6 0 6 C0 4.02 0 2.04 0 0 Z " fill="#FAF3D4" transform="translate(1207,224)"/>
<path d="M0 0 C0.33 0 0.66 0 1 0 C1 1.98 1 3.96 1 6 C0.67 6 0.34 6 0 6 C0 4.02 0 2.04 0 0 Z " fill="#FBFDFD" transform="translate(1222,74)"/>
<path d="M0 0 C1 4 1 4 1 4 Z " fill="#FADF83" transform="translate(1122,1076)"/>
<path d="M0 0 C1 4 1 4 1 4 Z " fill="#FADF83" transform="translate(1127,1026)"/>
<path d="M0 0 C1 4 1 4 1 4 Z " fill="#FADF83" transform="translate(1132,976)"/>
<path d="M0 0 C1 4 1 4 1 4 Z " fill="#FADF83" transform="translate(1137,926)"/>
<path d="M0 0 C1 4 1 4 1 4 Z " fill="#FADF83" transform="translate(1142,876)"/>
<path d="M0 0 C1 4 1 4 1 4 Z " fill="#FADF83" transform="translate(1147,826)"/>
<path d="M0 0 C1 4 1 4 1 4 Z " fill="#FAD046" transform="translate(1152,776)"/>
<path d="M0 0 C1 4 1 4 1 4 Z " fill="#FAD046" transform="translate(1157,726)"/>
<path d="M0 0 C1 4 1 4 1 4 Z " fill="#FAD046" transform="translate(1162,676)"/>
<path d="M0 0 C1 4 1 4 1 4 Z " fill="#FADF83" transform="translate(1167,626)"/>
<path d="M0 0 C1 4 1 4 1 4 Z " fill="#FADF83" transform="translate(1172,576)"/>
<path d="M0 0 C1 4 1 4 1 4 Z " fill="#FBFDFD" transform="translate(1225,17)"/>
<path d="M0 0 C3 1 3 1 3 1 Z " fill="#FBFDFD" transform="translate(698,1270)"/>
<path d="M0 0 C2 1 2 1 2 1 Z " fill="#FBFDFD" transform="translate(649,1277)"/>
<path d="M0 0 C2 1 2 1 2 1 Z " fill="#FBFDFD" transform="translate(686,1275)"/>
<path d="M0 0 C2 1 2 1 2 1 Z " fill="#FBFDFD" transform="translate(726,1260)"/>
<path d="M0 0 C2 1 2 1 2 1 Z " fill="#FBFDFD" transform="translate(739,1255)"/>
<path d="M0 0 C2 1 2 1 2 1 Z " fill="#FBFDFD" transform="translate(766,1245)"/>
<path d="M0 0 C2 1 2 1 2 1 Z " fill="#FBFDFD" transform="translate(779,1240)"/>
<path d="M0 0 C2 1 2 1 2 1 Z " fill="#FBFDFD" transform="translate(806,1230)"/>
<path d="M0 0 C2 1 2 1 2 1 Z " fill="#FBFDFD" transform="translate(819,1225)"/>
<path d="M0 0 C2 1 2 1 2 1 Z " fill="#FBFDFD" transform="translate(846,1215)"/>
<path d="M0 0 C2 1 2 1 2 1 Z " fill="#FBFDFD" transform="translate(859,1210)"/>
<path d="M0 0 C2 1 2 1 2 1 Z " fill="#FBFDFD" transform="translate(886,1200)"/>
<path d="M0 0 C2 1 2 1 2 1 Z " fill="#FBFDFD" transform="translate(899,1195)"/>
<path d="M0 0 C2 1 2 1 2 1 Z " fill="#FBFDFD" transform="translate(926,1185)"/>
<path d="M0 0 C2 1 2 1 2 1 Z " fill="#FBFDFD" transform="translate(939,1180)"/>
<path d="M0 0 C2 1 2 1 2 1 Z " fill="#FBFDFD" transform="translate(966,1170)"/>
<path d="M0 0 C2 1 2 1 2 1 Z " fill="#FBFDFD" transform="translate(979,1165)"/>
<path d="M0 0 C2 1 2 1 2 1 Z " fill="#FBFDFD" transform="translate(1006,1155)"/>
<path d="M0 0 C2 1 2 1 2 1 Z " fill="#FBFDFD" transform="translate(1019,1150)"/>
<path d="M0 0 C2 1 2 1 2 1 Z " fill="#FBFDFD" transform="translate(1046,1140)"/>
<path d="M0 0 C2 1 2 1 2 1 Z " fill="#FBFDFD" transform="translate(1059,1135)"/>
<path d="M0 0 C2 1 2 1 2 1 Z " fill="#FBFDFD" transform="translate(1086,1125)"/>
<path d="M0 0 C2 1 2 1 2 1 Z " fill="#FBFDFD" transform="translate(1099,1120)"/>
<path d="" fill="#FBFDFD" transform="translate(0,0)"/>
<path d="" fill="#FBFDFD" transform="translate(0,0)"/>
<path d="" fill="#FBFDFD" transform="translate(0,0)"/>
<path d="" fill="#FBFDFD" transform="translate(0,0)"/>
<path d="" fill="#FBFDFD" transform="translate(0,0)"/>
<path d="" fill="#FBFDFD" transform="translate(0,0)"/>
<path d="" fill="#FBFDFD" transform="translate(0,0)"/>
<path d="" fill="#FBFDFD" transform="translate(0,0)"/>
<path d="" fill="#FBFDFD" transform="translate(0,0)"/>
<path d="" fill="#FBFDFD" transform="translate(0,0)"/>
<path d="" fill="#FBFDFD" transform="translate(0,0)"/>
<path d="" fill="#FBFDFD" transform="translate(0,0)"/>
<path d="" fill="#FBFDFD" transform="translate(0,0)"/>
<path d="" fill="#FBFDFD" transform="translate(0,0)"/>
<path d="" fill="#FBFDFD" transform="translate(0,0)"/>
<path d="" fill="#FBFDFD" transform="translate(0,0)"/>
<path d="" fill="#FBFDFD" transform="translate(0,0)"/>
<path d="" fill="#FBFDFD" transform="translate(0,0)"/>
<path d="" fill="#FBFDFD" transform="translate(0,0)"/>
<path d="" fill="#FBFDFD" transform="translate(0,0)"/>
<path d="" fill="#FBFDFD" transform="translate(0,0)"/>
<path d="" fill="#FBFDFD" transform="translate(0,0)"/>
<path d="" fill="#FBFDFD" transform="translate(0,0)"/>
<path d="" fill="#FBFDFD" transform="translate(0,0)"/>
<path d="" fill="#FBFDFD" transform="translate(0,0)"/>
<path d="" fill="#FBFDFD" transform="translate(0,0)"/>
<path d="" fill="#FBFDFD" transform="translate(0,0)"/>
<path d="" fill="#FBFDFD" transform="translate(0,0)"/>
<path d="" fill="#FBFDFD" transform="translate(0,0)"/>
<path d="" fill="#FBFDFD" transform="translate(0,0)"/>
<path d="" fill="#FBFDFD" transform="translate(0,0)"/>
<path d="" fill="#FBFDFD" transform="translate(0,0)"/>
<path d="" fill="#FBFDFD" transform="translate(0,0)"/>
<path d="" fill="#FBFDFD" transform="translate(0,0)"/>
<path d="" fill="#FBFDFD" transform="translate(0,0)"/>
<path d="" fill="#FBFDFD" transform="translate(0,0)"/>
<path d="" fill="#FBFDFD" transform="translate(0,0)"/>
<path d="" fill="#FBFDFD" transform="translate(0,0)"/>
<path d="" fill="#FBFDFD" transform="translate(0,0)"/>
<path d="" fill="#FBFDFD" transform="translate(0,0)"/>
<path d="" fill="#FBFDFD" transform="translate(0,0)"/>
<path d="" fill="#FBFDFD" transform="translate(0,0)"/>
<path d="" fill="#FBFDFD" transform="translate(0,0)"/>
<path d="" fill="#AF8726" transform="translate(0,0)"/>
<path d="" fill="#FBFDFD" transform="translate(0,0)"/>
<path d="" fill="#FAC209" transform="translate(0,0)"/>
</svg>
